<mxfile host="app.diagrams.net" agent="Mozilla/5.0 (Windows NT 10.0; Win64; x64) AppleWebKit/537.36 (KHTML, like Gecko) Chrome/135.0.0.0 Safari/537.36" version="26.2.12">
  <diagram name="Page-1" id="YxFuTaXcHATPwFKj4RiD">
    <mxGraphModel dx="3763" dy="2537" grid="1" gridSize="10" guides="1" tooltips="1" connect="1" arrows="1" fold="1" page="1" pageScale="1" pageWidth="850" pageHeight="1100" math="0" shadow="0">
      <root>
        <mxCell id="0" />
        <mxCell id="1" parent="0" />
        <mxCell id="sDAoQvDrm24iOx8Zkhv_-2" value="User" style="whiteSpace=wrap;html=1;align=center;fillColor=#f8cecc;strokeColor=#b85450;" parent="1" vertex="1">
          <mxGeometry x="-370" y="208" width="100" height="40" as="geometry" />
        </mxCell>
        <mxCell id="sDAoQvDrm24iOx8Zkhv_-3" value="Admin" style="whiteSpace=wrap;html=1;align=center;fillColor=#f8cecc;strokeColor=#b85450;" parent="1" vertex="1">
          <mxGeometry x="60" y="208" width="100" height="40" as="geometry" />
        </mxCell>
        <mxCell id="sDAoQvDrm24iOx8Zkhv_-4" value="Operator" style="whiteSpace=wrap;html=1;align=center;fillColor=#f8cecc;strokeColor=#b85450;" parent="1" vertex="1">
          <mxGeometry x="-520" y="535" width="100" height="40" as="geometry" />
        </mxCell>
        <mxCell id="sDAoQvDrm24iOx8Zkhv_-62" style="rounded=0;orthogonalLoop=1;jettySize=auto;html=1;exitX=0.5;exitY=1;exitDx=0;exitDy=0;entryX=0.5;entryY=0;entryDx=0;entryDy=0;endArrow=none;startFill=0;" parent="1" source="sDAoQvDrm24iOx8Zkhv_-5" target="sDAoQvDrm24iOx8Zkhv_-60" edge="1">
          <mxGeometry relative="1" as="geometry" />
        </mxCell>
        <mxCell id="sDAoQvDrm24iOx8Zkhv_-5" value="Traveler" style="whiteSpace=wrap;html=1;align=center;fillColor=#f8cecc;strokeColor=#b85450;" parent="1" vertex="1">
          <mxGeometry x="-260" y="540" width="100" height="40" as="geometry" />
        </mxCell>
        <mxCell id="sDAoQvDrm24iOx8Zkhv_-6" value="" style="shape=link;html=1;rounded=0;exitX=0.5;exitY=1;exitDx=0;exitDy=0;entryX=0.5;entryY=0;entryDx=0;entryDy=0;" parent="1" source="sDAoQvDrm24iOx8Zkhv_-1" target="sDAoQvDrm24iOx8Zkhv_-11" edge="1">
          <mxGeometry relative="1" as="geometry">
            <mxPoint x="140" y="150" as="sourcePoint" />
            <mxPoint x="300" y="150" as="targetPoint" />
          </mxGeometry>
        </mxCell>
        <mxCell id="sDAoQvDrm24iOx8Zkhv_-7" value="" style="resizable=0;html=1;whiteSpace=wrap;align=right;verticalAlign=bottom;" parent="sDAoQvDrm24iOx8Zkhv_-6" connectable="0" vertex="1">
          <mxGeometry x="1" relative="1" as="geometry" />
        </mxCell>
        <mxCell id="sDAoQvDrm24iOx8Zkhv_-14" style="edgeStyle=orthogonalEdgeStyle;rounded=0;orthogonalLoop=1;jettySize=auto;html=1;exitX=0.5;exitY=1;exitDx=0;exitDy=0;entryX=0.5;entryY=0;entryDx=0;entryDy=0;endArrow=none;startFill=0;" parent="1" source="sDAoQvDrm24iOx8Zkhv_-11" target="sDAoQvDrm24iOx8Zkhv_-2" edge="1">
          <mxGeometry relative="1" as="geometry" />
        </mxCell>
        <mxCell id="sDAoQvDrm24iOx8Zkhv_-15" style="edgeStyle=orthogonalEdgeStyle;rounded=0;orthogonalLoop=1;jettySize=auto;html=1;exitX=0.5;exitY=1;exitDx=0;exitDy=0;entryX=0.5;entryY=0;entryDx=0;entryDy=0;endArrow=none;startFill=0;" parent="1" source="sDAoQvDrm24iOx8Zkhv_-11" target="sDAoQvDrm24iOx8Zkhv_-3" edge="1">
          <mxGeometry relative="1" as="geometry" />
        </mxCell>
        <mxCell id="sDAoQvDrm24iOx8Zkhv_-11" value="d" style="ellipse;whiteSpace=wrap;html=1;aspect=fixed;" parent="1" vertex="1">
          <mxGeometry x="-110" y="120" width="40" height="40" as="geometry" />
        </mxCell>
        <mxCell id="sDAoQvDrm24iOx8Zkhv_-12" value="" style="resizable=0;html=1;whiteSpace=wrap;align=right;verticalAlign=bottom;" parent="1" connectable="0" vertex="1">
          <mxGeometry x="60" y="280.0000000000001" as="geometry" />
        </mxCell>
        <mxCell id="yYfkGbvBnzKrjH2uq1O5-17" style="edgeStyle=orthogonalEdgeStyle;rounded=0;orthogonalLoop=1;jettySize=auto;html=1;entryX=0.5;entryY=0;entryDx=0;entryDy=0;" parent="1" source="sDAoQvDrm24iOx8Zkhv_-13" target="sDAoQvDrm24iOx8Zkhv_-4" edge="1">
          <mxGeometry relative="1" as="geometry">
            <Array as="points">
              <mxPoint x="-320" y="470" />
              <mxPoint x="-470" y="470" />
            </Array>
          </mxGeometry>
        </mxCell>
        <mxCell id="yYfkGbvBnzKrjH2uq1O5-18" style="edgeStyle=orthogonalEdgeStyle;rounded=0;orthogonalLoop=1;jettySize=auto;html=1;entryX=0.5;entryY=0;entryDx=0;entryDy=0;" parent="1" source="sDAoQvDrm24iOx8Zkhv_-13" target="sDAoQvDrm24iOx8Zkhv_-5" edge="1">
          <mxGeometry relative="1" as="geometry">
            <mxPoint x="-240" y="510" as="targetPoint" />
            <Array as="points">
              <mxPoint x="-320" y="470" />
              <mxPoint x="-210" y="470" />
            </Array>
          </mxGeometry>
        </mxCell>
        <mxCell id="sDAoQvDrm24iOx8Zkhv_-13" value="d" style="ellipse;whiteSpace=wrap;html=1;aspect=fixed;" parent="1" vertex="1">
          <mxGeometry x="-340" y="375" width="40" height="40" as="geometry" />
        </mxCell>
        <mxCell id="sDAoQvDrm24iOx8Zkhv_-16" value="" style="shape=link;html=1;rounded=0;entryX=0.5;entryY=1;entryDx=0;entryDy=0;exitX=0.5;exitY=0;exitDx=0;exitDy=0;" parent="1" source="sDAoQvDrm24iOx8Zkhv_-13" target="sDAoQvDrm24iOx8Zkhv_-2" edge="1">
          <mxGeometry relative="1" as="geometry">
            <mxPoint x="70" y="280" as="sourcePoint" />
            <mxPoint x="230" y="280" as="targetPoint" />
          </mxGeometry>
        </mxCell>
        <mxCell id="sDAoQvDrm24iOx8Zkhv_-60" value="Destination" style="ellipse;whiteSpace=wrap;html=1;align=center;fillColor=#f8cecc;strokeColor=#b85450;" parent="1" vertex="1">
          <mxGeometry x="-320" y="610" width="120" height="50" as="geometry" />
        </mxCell>
        <mxCell id="sDAoQvDrm24iOx8Zkhv_-90" style="rounded=0;orthogonalLoop=1;jettySize=auto;html=1;exitX=0.5;exitY=0;exitDx=0;exitDy=0;entryX=0.5;entryY=1;entryDx=0;entryDy=0;endArrow=none;startFill=0;" parent="1" source="sDAoQvDrm24iOx8Zkhv_-89" target="sDAoQvDrm24iOx8Zkhv_-5" edge="1">
          <mxGeometry relative="1" as="geometry" />
        </mxCell>
        <mxCell id="sDAoQvDrm24iOx8Zkhv_-89" value="status" style="ellipse;whiteSpace=wrap;html=1;align=center;fillColor=#f8cecc;strokeColor=#b85450;" parent="1" vertex="1">
          <mxGeometry x="-190" y="615" width="120" height="45" as="geometry" />
        </mxCell>
        <mxCell id="sDAoQvDrm24iOx8Zkhv_-131" value="" style="group" parent="1" vertex="1" connectable="0">
          <mxGeometry x="80" y="455" width="470" height="210" as="geometry" />
        </mxCell>
        <mxCell id="sDAoQvDrm24iOx8Zkhv_-127" style="rounded=0;orthogonalLoop=1;jettySize=auto;html=1;exitX=1;exitY=1;exitDx=0;exitDy=0;entryX=0;entryY=0.5;entryDx=0;entryDy=0;endArrow=none;startFill=0;fillColor=#ffff88;strokeColor=#CCCC00;" parent="sDAoQvDrm24iOx8Zkhv_-131" source="sDAoQvDrm24iOx8Zkhv_-106" target="sDAoQvDrm24iOx8Zkhv_-126" edge="1">
          <mxGeometry relative="1" as="geometry" />
        </mxCell>
        <mxCell id="sDAoQvDrm24iOx8Zkhv_-106" value="ServiceProvider" style="whiteSpace=wrap;html=1;align=center;fillColor=#ffff88;strokeColor=#CCCC00;" parent="sDAoQvDrm24iOx8Zkhv_-131" vertex="1">
          <mxGeometry x="170" y="90" width="100" height="40" as="geometry" />
        </mxCell>
        <mxCell id="sDAoQvDrm24iOx8Zkhv_-115" style="rounded=0;orthogonalLoop=1;jettySize=auto;html=1;exitX=1;exitY=0.5;exitDx=0;exitDy=0;entryX=0;entryY=1;entryDx=0;entryDy=0;endArrow=none;startFill=0;fillColor=#ffff88;strokeColor=#CCCC00;" parent="sDAoQvDrm24iOx8Zkhv_-131" source="sDAoQvDrm24iOx8Zkhv_-114" target="sDAoQvDrm24iOx8Zkhv_-106" edge="1">
          <mxGeometry relative="1" as="geometry" />
        </mxCell>
        <mxCell id="sDAoQvDrm24iOx8Zkhv_-114" value="ProviderID" style="ellipse;whiteSpace=wrap;html=1;align=center;fontStyle=4;fillColor=#ffff88;strokeColor=#CCCC00;" parent="sDAoQvDrm24iOx8Zkhv_-131" vertex="1">
          <mxGeometry x="40" y="130" width="100" height="40" as="geometry" />
        </mxCell>
        <mxCell id="sDAoQvDrm24iOx8Zkhv_-120" style="rounded=0;orthogonalLoop=1;jettySize=auto;html=1;exitX=1;exitY=0.5;exitDx=0;exitDy=0;entryX=0;entryY=0.5;entryDx=0;entryDy=0;endArrow=none;startFill=0;fillColor=#ffff88;strokeColor=#CCCC00;" parent="sDAoQvDrm24iOx8Zkhv_-131" source="sDAoQvDrm24iOx8Zkhv_-116" target="sDAoQvDrm24iOx8Zkhv_-106" edge="1">
          <mxGeometry relative="1" as="geometry">
            <mxPoint x="100" y="63" as="sourcePoint" />
            <mxPoint x="220" y="100" as="targetPoint" />
          </mxGeometry>
        </mxCell>
        <mxCell id="sDAoQvDrm24iOx8Zkhv_-116" value="Name" style="ellipse;whiteSpace=wrap;html=1;align=center;fillColor=#ffff88;strokeColor=#CCCC00;" parent="sDAoQvDrm24iOx8Zkhv_-131" vertex="1">
          <mxGeometry x="40" y="80" width="100" height="40" as="geometry" />
        </mxCell>
        <mxCell id="sDAoQvDrm24iOx8Zkhv_-121" style="rounded=0;orthogonalLoop=1;jettySize=auto;html=1;exitX=0.5;exitY=1;exitDx=0;exitDy=0;entryX=0;entryY=0;entryDx=0;entryDy=0;endArrow=none;startFill=0;fillColor=#ffff88;strokeColor=#CCCC00;" parent="sDAoQvDrm24iOx8Zkhv_-131" source="sDAoQvDrm24iOx8Zkhv_-117" target="sDAoQvDrm24iOx8Zkhv_-106" edge="1">
          <mxGeometry relative="1" as="geometry" />
        </mxCell>
        <mxCell id="sDAoQvDrm24iOx8Zkhv_-117" value="PhoneNumber" style="ellipse;whiteSpace=wrap;html=1;align=center;fillColor=#ffff88;strokeColor=#CCCC00;" parent="sDAoQvDrm24iOx8Zkhv_-131" vertex="1">
          <mxGeometry x="90" y="30" width="100" height="40" as="geometry" />
        </mxCell>
        <mxCell id="sDAoQvDrm24iOx8Zkhv_-126" value="AcceptanceStatus" style="ellipse;whiteSpace=wrap;html=1;align=center;fillColor=#ffff88;strokeColor=#CCCC00;" parent="sDAoQvDrm24iOx8Zkhv_-131" vertex="1">
          <mxGeometry x="300" y="130" width="120" height="50" as="geometry" />
        </mxCell>
        <mxCell id="sDAoQvDrm24iOx8Zkhv_-130" style="rounded=0;orthogonalLoop=1;jettySize=auto;html=1;entryX=0.5;entryY=1;entryDx=0;entryDy=0;endArrow=none;startFill=0;fillColor=#ffff88;strokeColor=#CCCC00;" parent="sDAoQvDrm24iOx8Zkhv_-131" source="sDAoQvDrm24iOx8Zkhv_-128" target="sDAoQvDrm24iOx8Zkhv_-106" edge="1">
          <mxGeometry relative="1" as="geometry" />
        </mxCell>
        <mxCell id="sDAoQvDrm24iOx8Zkhv_-128" value="ServiceType" style="ellipse;shape=doubleEllipse;margin=3;whiteSpace=wrap;html=1;align=center;fillColor=#ffff88;strokeColor=#CCCC00;" parent="sDAoQvDrm24iOx8Zkhv_-131" vertex="1">
          <mxGeometry x="120" y="170" width="100" height="40" as="geometry" />
        </mxCell>
        <mxCell id="sDAoQvDrm24iOx8Zkhv_-118" value="Email" style="ellipse;whiteSpace=wrap;html=1;align=center;fillColor=#ffff88;strokeColor=#CCCC00;" parent="sDAoQvDrm24iOx8Zkhv_-131" vertex="1">
          <mxGeometry x="220" y="170" width="100" height="40" as="geometry" />
        </mxCell>
        <mxCell id="sDAoQvDrm24iOx8Zkhv_-122" style="rounded=0;orthogonalLoop=1;jettySize=auto;html=1;exitX=0.75;exitY=1;exitDx=0;exitDy=0;endArrow=none;startFill=0;entryX=0.5;entryY=0;entryDx=0;entryDy=0;fillColor=#ffff88;strokeColor=#CCCC00;" parent="sDAoQvDrm24iOx8Zkhv_-131" source="sDAoQvDrm24iOx8Zkhv_-106" target="sDAoQvDrm24iOx8Zkhv_-118" edge="1">
          <mxGeometry relative="1" as="geometry">
            <mxPoint x="300" y="150" as="targetPoint" />
          </mxGeometry>
        </mxCell>
        <mxCell id="sDAoQvDrm24iOx8Zkhv_-140" value="provide" style="shape=rhombus;html=1;dashed=0;whiteSpace=wrap;perimeter=rhombusPerimeter;fillColor=#DEB3B5;" parent="1" vertex="1">
          <mxGeometry x="570" y="540" width="60" height="50" as="geometry" />
        </mxCell>
        <mxCell id="sDAoQvDrm24iOx8Zkhv_-141" value="" style="html=1;rounded=0;exitX=0;exitY=0.5;exitDx=0;exitDy=0;endArrow=none;startFill=0;entryX=1;entryY=0.5;entryDx=0;entryDy=0;" parent="1" source="sDAoQvDrm24iOx8Zkhv_-140" target="sDAoQvDrm24iOx8Zkhv_-106" edge="1">
          <mxGeometry relative="1" as="geometry">
            <mxPoint x="-50" y="730" as="sourcePoint" />
            <mxPoint x="170" y="900" as="targetPoint" />
          </mxGeometry>
        </mxCell>
        <mxCell id="sDAoQvDrm24iOx8Zkhv_-142" value="1" style="resizable=0;html=1;whiteSpace=wrap;align=right;verticalAlign=bottom;" parent="sDAoQvDrm24iOx8Zkhv_-141" connectable="0" vertex="1">
          <mxGeometry x="1" relative="1" as="geometry">
            <mxPoint x="30" y="10" as="offset" />
          </mxGeometry>
        </mxCell>
        <mxCell id="sDAoQvDrm24iOx8Zkhv_-143" value="" style="shape=link;html=1;rounded=0;entryX=0;entryY=0.5;entryDx=0;entryDy=0;exitX=1;exitY=0.5;exitDx=0;exitDy=0;" parent="1" source="sDAoQvDrm24iOx8Zkhv_-140" target="sDAoQvDrm24iOx8Zkhv_-22" edge="1">
          <mxGeometry relative="1" as="geometry">
            <mxPoint x="20" y="950" as="sourcePoint" />
            <mxPoint x="180" y="950" as="targetPoint" />
            <Array as="points" />
          </mxGeometry>
        </mxCell>
        <mxCell id="sDAoQvDrm24iOx8Zkhv_-144" value="N" style="resizable=0;html=1;whiteSpace=wrap;align=right;verticalAlign=bottom;" parent="sDAoQvDrm24iOx8Zkhv_-143" connectable="0" vertex="1">
          <mxGeometry x="1" relative="1" as="geometry">
            <mxPoint as="offset" />
          </mxGeometry>
        </mxCell>
        <mxCell id="sDAoQvDrm24iOx8Zkhv_-152" value="gives" style="shape=rhombus;html=1;dashed=0;whiteSpace=wrap;perimeter=rhombusPerimeter;fillColor=#DEB3B5;" parent="1" vertex="1">
          <mxGeometry x="470" y="35" width="60" height="50" as="geometry" />
        </mxCell>
        <mxCell id="sDAoQvDrm24iOx8Zkhv_-153" value="" style="shape=link;html=1;rounded=0;entryX=1;entryY=0;entryDx=0;entryDy=0;exitX=0.5;exitY=1;exitDx=0;exitDy=0;" parent="1" source="sDAoQvDrm24iOx8Zkhv_-152" target="sDAoQvDrm24iOx8Zkhv_-5" edge="1">
          <mxGeometry relative="1" as="geometry">
            <mxPoint x="590" y="170" as="sourcePoint" />
            <mxPoint x="750" y="170" as="targetPoint" />
          </mxGeometry>
        </mxCell>
        <mxCell id="sDAoQvDrm24iOx8Zkhv_-154" value="1" style="resizable=0;html=1;whiteSpace=wrap;align=right;verticalAlign=bottom;" parent="sDAoQvDrm24iOx8Zkhv_-153" connectable="0" vertex="1">
          <mxGeometry x="1" relative="1" as="geometry" />
        </mxCell>
        <mxCell id="sDAoQvDrm24iOx8Zkhv_-155" value="" style="shape=link;html=1;rounded=0;exitX=0.5;exitY=0;exitDx=0;exitDy=0;entryX=0.5;entryY=1;entryDx=0;entryDy=0;" parent="1" source="sDAoQvDrm24iOx8Zkhv_-152" target="sDAoQvDrm24iOx8Zkhv_-145" edge="1">
          <mxGeometry relative="1" as="geometry">
            <mxPoint x="590" y="170" as="sourcePoint" />
            <mxPoint x="500" y="-80" as="targetPoint" />
          </mxGeometry>
        </mxCell>
        <mxCell id="sDAoQvDrm24iOx8Zkhv_-156" value="N" style="resizable=0;html=1;whiteSpace=wrap;align=right;verticalAlign=bottom;" parent="sDAoQvDrm24iOx8Zkhv_-155" connectable="0" vertex="1">
          <mxGeometry x="1" relative="1" as="geometry" />
        </mxCell>
        <mxCell id="yYfkGbvBnzKrjH2uq1O5-7" value="N" style="edgeLabel;html=1;align=center;verticalAlign=middle;resizable=0;points=[];" parent="sDAoQvDrm24iOx8Zkhv_-155" connectable="0" vertex="1">
          <mxGeometry x="0.8225" y="-3" relative="1" as="geometry">
            <mxPoint as="offset" />
          </mxGeometry>
        </mxCell>
        <mxCell id="sDAoQvDrm24iOx8Zkhv_-169" value="makes" style="shape=rhombus;html=1;dashed=0;whiteSpace=wrap;perimeter=rhombusPerimeter;fillColor=#DEB3B5;" parent="1" vertex="1">
          <mxGeometry x="660" y="70" width="60" height="50" as="geometry" />
        </mxCell>
        <mxCell id="sDAoQvDrm24iOx8Zkhv_-170" value="" style="html=1;rounded=0;entryX=1;entryY=0.5;entryDx=0;entryDy=0;exitX=0;exitY=0.5;exitDx=0;exitDy=0;endArrow=none;startFill=0;" parent="1" source="sDAoQvDrm24iOx8Zkhv_-169" target="sDAoQvDrm24iOx8Zkhv_-5" edge="1">
          <mxGeometry relative="1" as="geometry">
            <mxPoint x="490" y="190" as="sourcePoint" />
            <mxPoint x="650" y="190" as="targetPoint" />
          </mxGeometry>
        </mxCell>
        <mxCell id="sDAoQvDrm24iOx8Zkhv_-171" value="1" style="resizable=0;html=1;whiteSpace=wrap;align=right;verticalAlign=bottom;" parent="sDAoQvDrm24iOx8Zkhv_-170" connectable="0" vertex="1">
          <mxGeometry x="1" relative="1" as="geometry" />
        </mxCell>
        <mxCell id="sDAoQvDrm24iOx8Zkhv_-172" value="" style="shape=link;html=1;rounded=0;entryX=0.5;entryY=1;entryDx=0;entryDy=0;exitX=1;exitY=0.5;exitDx=0;exitDy=0;" parent="1" source="sDAoQvDrm24iOx8Zkhv_-169" target="sDAoQvDrm24iOx8Zkhv_-160" edge="1">
          <mxGeometry relative="1" as="geometry">
            <mxPoint x="490" y="260" as="sourcePoint" />
            <mxPoint x="650" y="260" as="targetPoint" />
          </mxGeometry>
        </mxCell>
        <mxCell id="sDAoQvDrm24iOx8Zkhv_-173" value="N" style="resizable=0;html=1;whiteSpace=wrap;align=right;verticalAlign=bottom;" parent="sDAoQvDrm24iOx8Zkhv_-172" connectable="0" vertex="1">
          <mxGeometry x="1" relative="1" as="geometry" />
        </mxCell>
        <mxCell id="sDAoQvDrm24iOx8Zkhv_-180" value="" style="group" parent="1" vertex="1" connectable="0">
          <mxGeometry x="1200" y="120" width="267" height="193" as="geometry" />
        </mxCell>
        <mxCell id="sDAoQvDrm24iOx8Zkhv_-21" value="TourCategories" style="whiteSpace=wrap;html=1;align=center;fillColor=#dae8fc;strokeColor=#6c8ebf;" parent="sDAoQvDrm24iOx8Zkhv_-180" vertex="1">
          <mxGeometry x="37" y="103" width="100" height="40" as="geometry" />
        </mxCell>
        <mxCell id="sDAoQvDrm24iOx8Zkhv_-76" style="rounded=0;orthogonalLoop=1;jettySize=auto;html=1;exitX=0;exitY=1;exitDx=0;exitDy=0;endArrow=none;startFill=0;entryX=1;entryY=0;entryDx=0;entryDy=0;fillColor=#dae8fc;strokeColor=#6c8ebf;" parent="sDAoQvDrm24iOx8Zkhv_-180" source="sDAoQvDrm24iOx8Zkhv_-74" target="sDAoQvDrm24iOx8Zkhv_-21" edge="1">
          <mxGeometry relative="1" as="geometry">
            <mxPoint x="57" y="53" as="sourcePoint" />
          </mxGeometry>
        </mxCell>
        <mxCell id="sDAoQvDrm24iOx8Zkhv_-74" value="CategoryID" style="ellipse;whiteSpace=wrap;html=1;align=center;fontStyle=4;fillColor=#dae8fc;strokeColor=#6c8ebf;" parent="sDAoQvDrm24iOx8Zkhv_-180" vertex="1">
          <mxGeometry x="167" y="45" width="100" height="40" as="geometry" />
        </mxCell>
        <mxCell id="sDAoQvDrm24iOx8Zkhv_-77" style="rounded=0;orthogonalLoop=1;jettySize=auto;html=1;exitX=0;exitY=0.5;exitDx=0;exitDy=0;entryX=1;entryY=0.5;entryDx=0;entryDy=0;endArrow=none;startFill=0;fillColor=#dae8fc;strokeColor=#6c8ebf;" parent="sDAoQvDrm24iOx8Zkhv_-180" source="sDAoQvDrm24iOx8Zkhv_-75" target="sDAoQvDrm24iOx8Zkhv_-21" edge="1">
          <mxGeometry relative="1" as="geometry" />
        </mxCell>
        <mxCell id="sDAoQvDrm24iOx8Zkhv_-75" value="CategoryName" style="ellipse;whiteSpace=wrap;html=1;align=center;fillColor=#dae8fc;strokeColor=#6c8ebf;" parent="sDAoQvDrm24iOx8Zkhv_-180" vertex="1">
          <mxGeometry x="167" y="90" width="100" height="40" as="geometry" />
        </mxCell>
        <mxCell id="sDAoQvDrm24iOx8Zkhv_-132" style="rounded=0;orthogonalLoop=1;jettySize=auto;html=1;exitX=0;exitY=0.5;exitDx=0;exitDy=0;entryX=1;entryY=1;entryDx=0;entryDy=0;endArrow=none;startFill=0;fillColor=#dae8fc;strokeColor=#6c8ebf;" parent="sDAoQvDrm24iOx8Zkhv_-180" source="sDAoQvDrm24iOx8Zkhv_-78" target="sDAoQvDrm24iOx8Zkhv_-21" edge="1">
          <mxGeometry relative="1" as="geometry" />
        </mxCell>
        <mxCell id="sDAoQvDrm24iOx8Zkhv_-78" value="Activities" style="ellipse;shape=doubleEllipse;margin=3;whiteSpace=wrap;html=1;align=center;fillColor=#dae8fc;strokeColor=#6c8ebf;" parent="sDAoQvDrm24iOx8Zkhv_-180" vertex="1">
          <mxGeometry x="167" y="135" width="100" height="40" as="geometry" />
        </mxCell>
        <mxCell id="sDAoQvDrm24iOx8Zkhv_-181" value="belongs to" style="shape=rhombus;html=1;dashed=0;whiteSpace=wrap;perimeter=rhombusPerimeter;fillColor=#DEB3B5;" parent="1" vertex="1">
          <mxGeometry x="1247" y="50" width="80" height="75" as="geometry" />
        </mxCell>
        <mxCell id="sDAoQvDrm24iOx8Zkhv_-184" value="" style="endArrow=none;html=1;rounded=0;entryX=0.5;entryY=0;entryDx=0;entryDy=0;exitX=0.5;exitY=1;exitDx=0;exitDy=0;" parent="1" source="sDAoQvDrm24iOx8Zkhv_-181" target="sDAoQvDrm24iOx8Zkhv_-21" edge="1">
          <mxGeometry relative="1" as="geometry">
            <mxPoint x="1480" y="380" as="sourcePoint" />
            <mxPoint x="1640" y="380" as="targetPoint" />
          </mxGeometry>
        </mxCell>
        <mxCell id="sDAoQvDrm24iOx8Zkhv_-185" value="1" style="resizable=0;html=1;whiteSpace=wrap;align=right;verticalAlign=bottom;" parent="sDAoQvDrm24iOx8Zkhv_-184" connectable="0" vertex="1">
          <mxGeometry x="1" relative="1" as="geometry" />
        </mxCell>
        <mxCell id="sDAoQvDrm24iOx8Zkhv_-186" value="has" style="shape=rhombus;html=1;dashed=0;whiteSpace=wrap;perimeter=rhombusPerimeter;fillColor=#DEB3B5;" parent="1" vertex="1">
          <mxGeometry x="810" y="280" width="60" height="50" as="geometry" />
        </mxCell>
        <mxCell id="sDAoQvDrm24iOx8Zkhv_-187" value="" style="shape=link;html=1;rounded=0;exitX=0.5;exitY=0;exitDx=0;exitDy=0;entryX=0.25;entryY=1;entryDx=0;entryDy=0;" parent="1" source="sDAoQvDrm24iOx8Zkhv_-186" target="sDAoQvDrm24iOx8Zkhv_-20" edge="1">
          <mxGeometry relative="1" as="geometry">
            <mxPoint x="850" y="450" as="sourcePoint" />
            <mxPoint x="1410" y="-70" as="targetPoint" />
          </mxGeometry>
        </mxCell>
        <mxCell id="sDAoQvDrm24iOx8Zkhv_-188" value="N" style="resizable=0;html=1;whiteSpace=wrap;align=right;verticalAlign=bottom;container=0;" parent="sDAoQvDrm24iOx8Zkhv_-187" connectable="0" vertex="1">
          <mxGeometry x="1" relative="1" as="geometry" />
        </mxCell>
        <mxCell id="yYfkGbvBnzKrjH2uq1O5-40" value="N" style="edgeLabel;html=1;align=center;verticalAlign=middle;resizable=0;points=[];" parent="sDAoQvDrm24iOx8Zkhv_-187" connectable="0" vertex="1">
          <mxGeometry x="0.8784" y="-2" relative="1" as="geometry">
            <mxPoint y="-1" as="offset" />
          </mxGeometry>
        </mxCell>
        <mxCell id="sDAoQvDrm24iOx8Zkhv_-189" value="" style="endArrow=none;html=1;rounded=0;exitX=0;exitY=0.5;exitDx=0;exitDy=0;entryX=1;entryY=0.25;entryDx=0;entryDy=0;" parent="1" source="sDAoQvDrm24iOx8Zkhv_-186" target="sDAoQvDrm24iOx8Zkhv_-106" edge="1">
          <mxGeometry relative="1" as="geometry">
            <mxPoint x="850" y="420" as="sourcePoint" />
            <mxPoint x="810" y="690" as="targetPoint" />
          </mxGeometry>
        </mxCell>
        <mxCell id="sDAoQvDrm24iOx8Zkhv_-190" value="1" style="resizable=0;html=1;whiteSpace=wrap;align=right;verticalAlign=bottom;" parent="sDAoQvDrm24iOx8Zkhv_-189" connectable="0" vertex="1">
          <mxGeometry x="1" relative="1" as="geometry" />
        </mxCell>
        <mxCell id="sDAoQvDrm24iOx8Zkhv_-191" value="is registered by" style="shape=rhombus;html=1;dashed=0;whiteSpace=wrap;perimeter=rhombusPerimeter;fillColor=light-dark(#DEB3B5,#EDEDED);" parent="1" vertex="1">
          <mxGeometry x="-150" y="188" width="100" height="80" as="geometry" />
        </mxCell>
        <mxCell id="sDAoQvDrm24iOx8Zkhv_-192" value="" style="shape=link;html=1;rounded=0;exitX=0;exitY=0.5;exitDx=0;exitDy=0;entryX=1;entryY=0.5;entryDx=0;entryDy=0;" parent="1" source="sDAoQvDrm24iOx8Zkhv_-191" target="sDAoQvDrm24iOx8Zkhv_-2" edge="1">
          <mxGeometry relative="1" as="geometry">
            <mxPoint x="70" y="350" as="sourcePoint" />
            <mxPoint x="-270" y="238" as="targetPoint" />
          </mxGeometry>
        </mxCell>
        <mxCell id="sDAoQvDrm24iOx8Zkhv_-193" value="N" style="resizable=0;html=1;whiteSpace=wrap;align=right;verticalAlign=bottom;" parent="sDAoQvDrm24iOx8Zkhv_-192" connectable="0" vertex="1">
          <mxGeometry x="1" relative="1" as="geometry" />
        </mxCell>
        <mxCell id="sDAoQvDrm24iOx8Zkhv_-194" value="" style="endArrow=none;html=1;rounded=0;entryX=0;entryY=0.5;entryDx=0;entryDy=0;exitX=1;exitY=0.5;exitDx=0;exitDy=0;" parent="1" source="sDAoQvDrm24iOx8Zkhv_-191" target="sDAoQvDrm24iOx8Zkhv_-3" edge="1">
          <mxGeometry relative="1" as="geometry">
            <mxPoint x="70" y="350" as="sourcePoint" />
            <mxPoint x="230" y="350" as="targetPoint" />
          </mxGeometry>
        </mxCell>
        <mxCell id="sDAoQvDrm24iOx8Zkhv_-195" value="1" style="resizable=0;html=1;whiteSpace=wrap;align=right;verticalAlign=bottom;" parent="sDAoQvDrm24iOx8Zkhv_-194" connectable="0" vertex="1">
          <mxGeometry x="1" relative="1" as="geometry" />
        </mxCell>
        <mxCell id="sDAoQvDrm24iOx8Zkhv_-205" value="Shares" style="shape=rhombus;html=1;dashed=0;whiteSpace=wrap;perimeter=rhombusPerimeter;fillColor=#DEB3B5;" parent="1" vertex="1">
          <mxGeometry x="550" y="740" width="60" height="50" as="geometry" />
        </mxCell>
        <mxCell id="sDAoQvDrm24iOx8Zkhv_-206" value="" style="endArrow=none;html=1;rounded=0;entryX=0;entryY=0.5;entryDx=0;entryDy=0;exitX=1;exitY=0.5;exitDx=0;exitDy=0;shape=link;" parent="1" source="sDAoQvDrm24iOx8Zkhv_-205" target="sDAoQvDrm24iOx8Zkhv_-196" edge="1">
          <mxGeometry relative="1" as="geometry">
            <mxPoint x="290" y="330" as="sourcePoint" />
            <mxPoint x="450" y="330" as="targetPoint" />
          </mxGeometry>
        </mxCell>
        <mxCell id="sDAoQvDrm24iOx8Zkhv_-207" value="1" style="resizable=0;html=1;whiteSpace=wrap;align=right;verticalAlign=bottom;" parent="sDAoQvDrm24iOx8Zkhv_-206" connectable="0" vertex="1">
          <mxGeometry x="1" relative="1" as="geometry" />
        </mxCell>
        <mxCell id="sDAoQvDrm24iOx8Zkhv_-208" value="" style="html=1;rounded=0;entryX=1;entryY=1;entryDx=0;entryDy=0;exitX=0;exitY=0.5;exitDx=0;exitDy=0;entryPerimeter=0;endArrow=none;startFill=0;" parent="1" source="sDAoQvDrm24iOx8Zkhv_-205" target="sDAoQvDrm24iOx8Zkhv_-5" edge="1">
          <mxGeometry relative="1" as="geometry">
            <mxPoint x="290" y="330" as="sourcePoint" />
            <mxPoint x="450" y="330" as="targetPoint" />
          </mxGeometry>
        </mxCell>
        <mxCell id="sDAoQvDrm24iOx8Zkhv_-209" value="1" style="resizable=0;html=1;whiteSpace=wrap;align=right;verticalAlign=bottom;" parent="sDAoQvDrm24iOx8Zkhv_-208" connectable="0" vertex="1">
          <mxGeometry x="1" relative="1" as="geometry" />
        </mxCell>
        <mxCell id="sDAoQvDrm24iOx8Zkhv_-210" value="About" style="shape=rhombus;html=1;dashed=0;whiteSpace=wrap;perimeter=rhombusPerimeter;fillColor=#DEB3B5;" parent="1" vertex="1">
          <mxGeometry x="1590" y="225" width="60" height="50" as="geometry" />
        </mxCell>
        <mxCell id="sDAoQvDrm24iOx8Zkhv_-211" value="" style="endArrow=none;html=1;rounded=0;entryX=0.5;entryY=0;entryDx=0;entryDy=0;exitX=0.5;exitY=1;exitDx=0;exitDy=0;shape=link;" parent="1" source="sDAoQvDrm24iOx8Zkhv_-210" target="sDAoQvDrm24iOx8Zkhv_-196" edge="1">
          <mxGeometry relative="1" as="geometry">
            <mxPoint x="1120" y="310" as="sourcePoint" />
            <mxPoint x="1280" y="310" as="targetPoint" />
          </mxGeometry>
        </mxCell>
        <mxCell id="sDAoQvDrm24iOx8Zkhv_-212" value="N" style="resizable=0;html=1;whiteSpace=wrap;align=right;verticalAlign=bottom;" parent="sDAoQvDrm24iOx8Zkhv_-211" connectable="0" vertex="1">
          <mxGeometry x="1" relative="1" as="geometry" />
        </mxCell>
        <mxCell id="sDAoQvDrm24iOx8Zkhv_-213" value="" style="html=1;rounded=0;exitX=0.5;exitY=0;exitDx=0;exitDy=0;endArrow=none;startFill=0;entryX=1;entryY=1;entryDx=0;entryDy=0;" parent="1" source="sDAoQvDrm24iOx8Zkhv_-210" target="sDAoQvDrm24iOx8Zkhv_-20" edge="1">
          <mxGeometry relative="1" as="geometry">
            <mxPoint x="1120" y="310" as="sourcePoint" />
            <mxPoint x="1540" y="-70" as="targetPoint" />
          </mxGeometry>
        </mxCell>
        <mxCell id="sDAoQvDrm24iOx8Zkhv_-214" value="1" style="resizable=0;html=1;whiteSpace=wrap;align=right;verticalAlign=bottom;container=0;" parent="sDAoQvDrm24iOx8Zkhv_-213" connectable="0" vertex="1">
          <mxGeometry x="1" relative="1" as="geometry" />
        </mxCell>
        <mxCell id="yYfkGbvBnzKrjH2uq1O5-38" value="1" style="edgeLabel;html=1;align=center;verticalAlign=middle;resizable=0;points=[];" parent="sDAoQvDrm24iOx8Zkhv_-213" connectable="0" vertex="1">
          <mxGeometry x="0.7803" relative="1" as="geometry">
            <mxPoint x="-1" as="offset" />
          </mxGeometry>
        </mxCell>
        <mxCell id="sDAoQvDrm24iOx8Zkhv_-215" value="Filters" style="shape=rhombus;perimeter=rhombusPerimeter;whiteSpace=wrap;html=1;align=center;fillColor=#DEB3B5;" parent="1" vertex="1">
          <mxGeometry x="1020" y="365" width="120" height="60" as="geometry" />
        </mxCell>
        <mxCell id="sDAoQvDrm24iOx8Zkhv_-216" value="" style="shape=link;html=1;rounded=0;entryX=1;entryY=1;entryDx=0;entryDy=0;exitX=0;exitY=0.5;exitDx=0;exitDy=0;" parent="1" source="sDAoQvDrm24iOx8Zkhv_-215" target="sDAoQvDrm24iOx8Zkhv_-3" edge="1">
          <mxGeometry relative="1" as="geometry">
            <mxPoint x="360" y="310" as="sourcePoint" />
            <mxPoint x="520" y="310" as="targetPoint" />
          </mxGeometry>
        </mxCell>
        <mxCell id="sDAoQvDrm24iOx8Zkhv_-217" value="1" style="resizable=0;html=1;whiteSpace=wrap;align=right;verticalAlign=bottom;" parent="sDAoQvDrm24iOx8Zkhv_-216" connectable="0" vertex="1">
          <mxGeometry x="1" relative="1" as="geometry" />
        </mxCell>
        <mxCell id="sDAoQvDrm24iOx8Zkhv_-218" value="" style="endArrow=none;html=1;rounded=0;entryX=0;entryY=0;entryDx=0;entryDy=0;exitX=1;exitY=0.5;exitDx=0;exitDy=0;" parent="1" source="sDAoQvDrm24iOx8Zkhv_-215" target="sDAoQvDrm24iOx8Zkhv_-196" edge="1">
          <mxGeometry relative="1" as="geometry">
            <mxPoint x="360" y="310" as="sourcePoint" />
            <mxPoint x="520" y="310" as="targetPoint" />
          </mxGeometry>
        </mxCell>
        <mxCell id="sDAoQvDrm24iOx8Zkhv_-219" value="N" style="resizable=0;html=1;whiteSpace=wrap;align=right;verticalAlign=bottom;" parent="sDAoQvDrm24iOx8Zkhv_-218" connectable="0" vertex="1">
          <mxGeometry x="1" relative="1" as="geometry" />
        </mxCell>
        <mxCell id="sDAoQvDrm24iOx8Zkhv_-221" value="Oversees" style="shape=rhombus;perimeter=rhombusPerimeter;whiteSpace=wrap;html=1;align=center;fillColor=#DEB3B5;" parent="1" vertex="1">
          <mxGeometry x="600" y="203" width="120" height="60" as="geometry" />
        </mxCell>
        <mxCell id="sDAoQvDrm24iOx8Zkhv_-222" value="" style="endArrow=none;html=1;rounded=0;exitX=1;exitY=0.5;exitDx=0;exitDy=0;entryX=0;entryY=0.5;entryDx=0;entryDy=0;shape=link;" parent="1" source="sDAoQvDrm24iOx8Zkhv_-221" target="sDAoQvDrm24iOx8Zkhv_-21" edge="1">
          <mxGeometry relative="1" as="geometry">
            <mxPoint x="1030" y="670" as="sourcePoint" />
            <mxPoint x="1190" y="670" as="targetPoint" />
          </mxGeometry>
        </mxCell>
        <mxCell id="sDAoQvDrm24iOx8Zkhv_-223" value="N" style="resizable=0;html=1;whiteSpace=wrap;align=right;verticalAlign=bottom;" parent="sDAoQvDrm24iOx8Zkhv_-222" connectable="0" vertex="1">
          <mxGeometry x="1" relative="1" as="geometry" />
        </mxCell>
        <mxCell id="sDAoQvDrm24iOx8Zkhv_-224" value="" style="html=1;rounded=0;entryX=1;entryY=0.5;entryDx=0;entryDy=0;exitX=0;exitY=0.5;exitDx=0;exitDy=0;endArrow=none;startFill=0;" parent="1" source="sDAoQvDrm24iOx8Zkhv_-221" target="sDAoQvDrm24iOx8Zkhv_-3" edge="1">
          <mxGeometry relative="1" as="geometry">
            <mxPoint x="510" y="390" as="sourcePoint" />
            <mxPoint x="670" y="390" as="targetPoint" />
          </mxGeometry>
        </mxCell>
        <mxCell id="sDAoQvDrm24iOx8Zkhv_-225" value="1" style="resizable=0;html=1;whiteSpace=wrap;align=right;verticalAlign=bottom;" parent="sDAoQvDrm24iOx8Zkhv_-224" connectable="0" vertex="1">
          <mxGeometry x="1" relative="1" as="geometry" />
        </mxCell>
        <mxCell id="sDAoQvDrm24iOx8Zkhv_-226" value="Views" style="shape=rhombus;perimeter=rhombusPerimeter;whiteSpace=wrap;html=1;align=center;fillColor=#DEB3B5;" parent="1" vertex="1">
          <mxGeometry x="520" y="880" width="120" height="60" as="geometry" />
        </mxCell>
        <mxCell id="sDAoQvDrm24iOx8Zkhv_-227" value="" style="endArrow=none;html=1;rounded=0;entryX=0.5;entryY=1;entryDx=0;entryDy=0;exitX=0;exitY=0.5;exitDx=0;exitDy=0;" parent="1" source="sDAoQvDrm24iOx8Zkhv_-226" target="sDAoQvDrm24iOx8Zkhv_-4" edge="1">
          <mxGeometry relative="1" as="geometry">
            <mxPoint x="170" y="310" as="sourcePoint" />
            <mxPoint x="330" y="310" as="targetPoint" />
          </mxGeometry>
        </mxCell>
        <mxCell id="sDAoQvDrm24iOx8Zkhv_-228" value="1" style="resizable=0;html=1;whiteSpace=wrap;align=right;verticalAlign=bottom;" parent="sDAoQvDrm24iOx8Zkhv_-227" connectable="0" vertex="1">
          <mxGeometry x="1" relative="1" as="geometry" />
        </mxCell>
        <mxCell id="sDAoQvDrm24iOx8Zkhv_-229" value="" style="shape=link;html=1;rounded=0;entryX=0;entryY=1;entryDx=0;entryDy=0;exitX=1;exitY=0.5;exitDx=0;exitDy=0;" parent="1" source="sDAoQvDrm24iOx8Zkhv_-226" target="sDAoQvDrm24iOx8Zkhv_-196" edge="1">
          <mxGeometry relative="1" as="geometry">
            <mxPoint x="170" y="310" as="sourcePoint" />
            <mxPoint x="330" y="310" as="targetPoint" />
          </mxGeometry>
        </mxCell>
        <mxCell id="sDAoQvDrm24iOx8Zkhv_-230" value="N" style="resizable=0;html=1;whiteSpace=wrap;align=right;verticalAlign=bottom;" parent="sDAoQvDrm24iOx8Zkhv_-229" connectable="0" vertex="1">
          <mxGeometry x="1" relative="1" as="geometry" />
        </mxCell>
        <mxCell id="yYfkGbvBnzKrjH2uq1O5-1" value="" style="group" parent="1" connectable="0" vertex="1">
          <mxGeometry x="-550" y="-340" width="727" height="271" as="geometry" />
        </mxCell>
        <mxCell id="sDAoQvDrm24iOx8Zkhv_-64" style="rounded=0;orthogonalLoop=1;jettySize=auto;html=1;exitX=1;exitY=0.25;exitDx=0;exitDy=0;entryX=0;entryY=0.5;entryDx=0;entryDy=0;endArrow=none;startFill=0;fillColor=#f8cecc;strokeColor=#FF66B3;" parent="yYfkGbvBnzKrjH2uq1O5-1" source="sDAoQvDrm24iOx8Zkhv_-1" target="sDAoQvDrm24iOx8Zkhv_-63" edge="1">
          <mxGeometry relative="1" as="geometry" />
        </mxCell>
        <mxCell id="sDAoQvDrm24iOx8Zkhv_-1" value="Person" style="whiteSpace=wrap;html=1;align=center;fillColor=#f8cecc;strokeColor=#FF66B3;" parent="yYfkGbvBnzKrjH2uq1O5-1" vertex="1">
          <mxGeometry x="408" y="205" width="100" height="40" as="geometry" />
        </mxCell>
        <mxCell id="sDAoQvDrm24iOx8Zkhv_-37" style="rounded=0;orthogonalLoop=1;jettySize=auto;html=1;exitX=0.5;exitY=1;exitDx=0;exitDy=0;entryX=0;entryY=0;entryDx=0;entryDy=0;endArrow=none;startFill=0;fillColor=#f8cecc;strokeColor=#FF66B3;" parent="yYfkGbvBnzKrjH2uq1O5-1" source="sDAoQvDrm24iOx8Zkhv_-23" target="sDAoQvDrm24iOx8Zkhv_-1" edge="1">
          <mxGeometry relative="1" as="geometry" />
        </mxCell>
        <mxCell id="sDAoQvDrm24iOx8Zkhv_-23" value="Name" style="ellipse;whiteSpace=wrap;html=1;align=center;fillColor=#f8cecc;strokeColor=#FF66B3;" parent="yYfkGbvBnzKrjH2uq1O5-1" vertex="1">
          <mxGeometry x="320" y="140" width="100" height="40" as="geometry" />
        </mxCell>
        <mxCell id="sDAoQvDrm24iOx8Zkhv_-35" style="rounded=0;orthogonalLoop=1;jettySize=auto;html=1;exitX=1;exitY=1;exitDx=0;exitDy=0;endArrow=none;startFill=0;entryX=0;entryY=0;entryDx=0;entryDy=0;fillColor=#f8cecc;strokeColor=#FF66B3;" parent="yYfkGbvBnzKrjH2uq1O5-1" source="sDAoQvDrm24iOx8Zkhv_-24" target="sDAoQvDrm24iOx8Zkhv_-23" edge="1">
          <mxGeometry relative="1" as="geometry">
            <mxPoint x="320" y="160" as="targetPoint" />
          </mxGeometry>
        </mxCell>
        <mxCell id="sDAoQvDrm24iOx8Zkhv_-24" value="FName" style="ellipse;whiteSpace=wrap;html=1;align=center;fillColor=#f8cecc;strokeColor=#FF66B3;" parent="yYfkGbvBnzKrjH2uq1O5-1" vertex="1">
          <mxGeometry x="220" y="65" width="100" height="45" as="geometry" />
        </mxCell>
        <mxCell id="sDAoQvDrm24iOx8Zkhv_-36" style="rounded=0;orthogonalLoop=1;jettySize=auto;html=1;exitX=0.5;exitY=1;exitDx=0;exitDy=0;endArrow=none;startFill=0;fillColor=#f8cecc;strokeColor=#FF66B3;" parent="yYfkGbvBnzKrjH2uq1O5-1" source="sDAoQvDrm24iOx8Zkhv_-25" target="sDAoQvDrm24iOx8Zkhv_-23" edge="1">
          <mxGeometry relative="1" as="geometry" />
        </mxCell>
        <mxCell id="sDAoQvDrm24iOx8Zkhv_-25" value="LName" style="ellipse;whiteSpace=wrap;html=1;align=center;fillColor=#f8cecc;strokeColor=#FF66B3;" parent="yYfkGbvBnzKrjH2uq1O5-1" vertex="1">
          <mxGeometry x="330" y="65" width="100" height="40" as="geometry" />
        </mxCell>
        <mxCell id="sDAoQvDrm24iOx8Zkhv_-38" style="rounded=0;orthogonalLoop=1;jettySize=auto;html=1;exitX=0.5;exitY=1;exitDx=0;exitDy=0;entryX=0.5;entryY=0;entryDx=0;entryDy=0;endArrow=none;startFill=0;fillColor=#f8cecc;strokeColor=#FF66B3;" parent="yYfkGbvBnzKrjH2uq1O5-1" source="sDAoQvDrm24iOx8Zkhv_-56" target="sDAoQvDrm24iOx8Zkhv_-1" edge="1">
          <mxGeometry relative="1" as="geometry">
            <mxPoint x="548" y="145" as="sourcePoint" />
          </mxGeometry>
        </mxCell>
        <mxCell id="sDAoQvDrm24iOx8Zkhv_-39" style="rounded=0;orthogonalLoop=1;jettySize=auto;html=1;exitX=0.075;exitY=0.801;exitDx=0;exitDy=0;endArrow=none;startFill=0;entryX=1;entryY=0;entryDx=0;entryDy=0;exitPerimeter=0;fillColor=#f8cecc;strokeColor=#FF66B3;" parent="yYfkGbvBnzKrjH2uq1O5-1" source="sDAoQvDrm24iOx8Zkhv_-27" target="sDAoQvDrm24iOx8Zkhv_-1" edge="1">
          <mxGeometry relative="1" as="geometry">
            <mxPoint x="458" y="205" as="targetPoint" />
          </mxGeometry>
        </mxCell>
        <mxCell id="sDAoQvDrm24iOx8Zkhv_-42" style="rounded=0;orthogonalLoop=1;jettySize=auto;html=1;exitX=1;exitY=0.5;exitDx=0;exitDy=0;entryX=0;entryY=0.5;entryDx=0;entryDy=0;endArrow=none;startFill=0;fillColor=#f8cecc;strokeColor=#FF66B3;" parent="yYfkGbvBnzKrjH2uq1O5-1" source="sDAoQvDrm24iOx8Zkhv_-30" target="sDAoQvDrm24iOx8Zkhv_-1" edge="1">
          <mxGeometry relative="1" as="geometry" />
        </mxCell>
        <mxCell id="sDAoQvDrm24iOx8Zkhv_-30" value="PhoneNo" style="ellipse;whiteSpace=wrap;html=1;align=center;fillColor=#f8cecc;strokeColor=#FF66B3;" parent="yYfkGbvBnzKrjH2uq1O5-1" vertex="1">
          <mxGeometry x="270" y="190" width="100" height="40" as="geometry" />
        </mxCell>
        <mxCell id="sDAoQvDrm24iOx8Zkhv_-32" value="City" style="ellipse;whiteSpace=wrap;html=1;align=center;fillColor=#f8cecc;strokeColor=#FF66B3;" parent="yYfkGbvBnzKrjH2uq1O5-1" vertex="1">
          <mxGeometry x="170" y="205" width="100" height="40" as="geometry" />
        </mxCell>
        <mxCell id="sDAoQvDrm24iOx8Zkhv_-56" value="RegistrationNumber" style="ellipse;whiteSpace=wrap;html=1;align=center;fontStyle=4;fillColor=#f8cecc;strokeColor=#FF66B3;" parent="yYfkGbvBnzKrjH2uq1O5-1" vertex="1">
          <mxGeometry x="420" y="121" width="110" height="49" as="geometry" />
        </mxCell>
        <mxCell id="sDAoQvDrm24iOx8Zkhv_-63" value="CNIC" style="ellipse;whiteSpace=wrap;html=1;align=center;fillColor=#f8cecc;strokeColor=#FF66B3;" parent="yYfkGbvBnzKrjH2uq1O5-1" vertex="1">
          <mxGeometry x="580" y="180" width="100" height="40" as="geometry" />
        </mxCell>
        <mxCell id="sDAoQvDrm24iOx8Zkhv_-66" style="rounded=0;orthogonalLoop=1;jettySize=auto;html=1;entryX=1;entryY=0.5;entryDx=0;entryDy=0;endArrow=none;startFill=0;exitX=0;exitY=0.5;exitDx=0;exitDy=0;fillColor=#f8cecc;strokeColor=#FF66B3;" parent="yYfkGbvBnzKrjH2uq1O5-1" source="sDAoQvDrm24iOx8Zkhv_-65" target="sDAoQvDrm24iOx8Zkhv_-1" edge="1">
          <mxGeometry relative="1" as="geometry">
            <mxPoint x="607.5120870539067" y="232.14492809926378" as="sourcePoint" />
          </mxGeometry>
        </mxCell>
        <mxCell id="sDAoQvDrm24iOx8Zkhv_-65" value="RDate" style="ellipse;whiteSpace=wrap;html=1;align=center;fillColor=#f8cecc;strokeColor=#FF66B3;" parent="yYfkGbvBnzKrjH2uq1O5-1" vertex="1">
          <mxGeometry x="550" y="230" width="100" height="40" as="geometry" />
        </mxCell>
        <mxCell id="sDAoQvDrm24iOx8Zkhv_-27" value="DOB" style="ellipse;whiteSpace=wrap;html=1;align=center;fillColor=#f8cecc;strokeColor=#FF66B3;" parent="yYfkGbvBnzKrjH2uq1O5-1" vertex="1">
          <mxGeometry x="550" y="125" width="100" height="40" as="geometry" />
        </mxCell>
        <mxCell id="sDAoQvDrm24iOx8Zkhv_-70" value="Role" style="ellipse;whiteSpace=wrap;html=1;align=center;fillColor=#f8cecc;strokeColor=#FF66B3;" parent="1" vertex="1">
          <mxGeometry x="-210" y="-30" width="100" height="40" as="geometry" />
        </mxCell>
        <mxCell id="sDAoQvDrm24iOx8Zkhv_-71" style="rounded=0;orthogonalLoop=1;jettySize=auto;html=1;entryX=0;entryY=1;entryDx=0;entryDy=0;endArrow=none;startFill=0;fillColor=#f8cecc;strokeColor=#FF66B3;" parent="1" source="sDAoQvDrm24iOx8Zkhv_-70" target="sDAoQvDrm24iOx8Zkhv_-1" edge="1">
          <mxGeometry relative="1" as="geometry" />
        </mxCell>
        <mxCell id="sDAoQvDrm24iOx8Zkhv_-31" value="Address" style="ellipse;whiteSpace=wrap;html=1;align=center;fillColor=#f8cecc;strokeColor=#FF66B3;" parent="1" vertex="1">
          <mxGeometry x="-300" y="-84" width="100" height="40" as="geometry" />
        </mxCell>
        <mxCell id="sDAoQvDrm24iOx8Zkhv_-53" style="rounded=0;orthogonalLoop=1;jettySize=auto;html=1;exitX=1;exitY=0.5;exitDx=0;exitDy=0;entryX=0;entryY=0.75;entryDx=0;entryDy=0;endArrow=none;startFill=0;fillColor=#f8cecc;strokeColor=#FF66B3;" parent="1" source="sDAoQvDrm24iOx8Zkhv_-31" target="sDAoQvDrm24iOx8Zkhv_-1" edge="1">
          <mxGeometry relative="1" as="geometry" />
        </mxCell>
        <mxCell id="sDAoQvDrm24iOx8Zkhv_-43" style="rounded=0;orthogonalLoop=1;jettySize=auto;html=1;exitX=0.757;exitY=0.875;exitDx=0;exitDy=0;endArrow=none;startFill=0;exitPerimeter=0;entryX=0;entryY=0;entryDx=0;entryDy=0;fillColor=#f8cecc;strokeColor=#FF66B3;" parent="1" source="sDAoQvDrm24iOx8Zkhv_-32" target="sDAoQvDrm24iOx8Zkhv_-31" edge="1">
          <mxGeometry relative="1" as="geometry" />
        </mxCell>
        <mxCell id="sDAoQvDrm24iOx8Zkhv_-44" style="rounded=0;orthogonalLoop=1;jettySize=auto;html=1;exitX=1;exitY=0.5;exitDx=0;exitDy=0;entryX=0;entryY=0.5;entryDx=0;entryDy=0;endArrow=none;startFill=0;fillColor=#f8cecc;strokeColor=#FF66B3;" parent="1" source="sDAoQvDrm24iOx8Zkhv_-33" target="sDAoQvDrm24iOx8Zkhv_-31" edge="1">
          <mxGeometry relative="1" as="geometry" />
        </mxCell>
        <mxCell id="sDAoQvDrm24iOx8Zkhv_-45" style="rounded=0;orthogonalLoop=1;jettySize=auto;html=1;exitX=0.5;exitY=0;exitDx=0;exitDy=0;entryX=0;entryY=1;entryDx=0;entryDy=0;endArrow=none;startFill=0;fillColor=#f8cecc;strokeColor=#FF66B3;" parent="1" source="sDAoQvDrm24iOx8Zkhv_-34" target="sDAoQvDrm24iOx8Zkhv_-31" edge="1">
          <mxGeometry relative="1" as="geometry" />
        </mxCell>
        <mxCell id="sDAoQvDrm24iOx8Zkhv_-34" value="Zipcode" style="ellipse;whiteSpace=wrap;html=1;align=center;fillColor=#f8cecc;strokeColor=#FF66B3;" parent="1" vertex="1">
          <mxGeometry x="-360" y="-20" width="100" height="40" as="geometry" />
        </mxCell>
        <mxCell id="sDAoQvDrm24iOx8Zkhv_-33" value="State" style="ellipse;whiteSpace=wrap;html=1;align=center;fillColor=#f8cecc;strokeColor=#FF66B3;" parent="1" vertex="1">
          <mxGeometry x="-420" y="-84" width="100" height="40" as="geometry" />
        </mxCell>
        <mxCell id="yYfkGbvBnzKrjH2uq1O5-3" value="" style="group" parent="1" connectable="0" vertex="1">
          <mxGeometry x="350" y="-230" width="300" height="120" as="geometry" />
        </mxCell>
        <mxCell id="sDAoQvDrm24iOx8Zkhv_-145" value="Payment" style="whiteSpace=wrap;html=1;align=center;fillColor=#d5e8d4;strokeColor=#82b366;" parent="yYfkGbvBnzKrjH2uq1O5-3" vertex="1">
          <mxGeometry x="100" y="80" width="100" height="40" as="geometry" />
        </mxCell>
        <mxCell id="sDAoQvDrm24iOx8Zkhv_-149" style="rounded=0;orthogonalLoop=1;jettySize=auto;html=1;exitX=0.5;exitY=1;exitDx=0;exitDy=0;entryX=0.5;entryY=0;entryDx=0;entryDy=0;endArrow=none;startFill=0;fillColor=#d5e8d4;strokeColor=#82b366;" parent="yYfkGbvBnzKrjH2uq1O5-3" source="sDAoQvDrm24iOx8Zkhv_-146" target="sDAoQvDrm24iOx8Zkhv_-145" edge="1">
          <mxGeometry relative="1" as="geometry" />
        </mxCell>
        <mxCell id="sDAoQvDrm24iOx8Zkhv_-146" value="PaymentID" style="ellipse;whiteSpace=wrap;html=1;align=center;fontStyle=4;fillColor=#d5e8d4;strokeColor=#82b366;" parent="yYfkGbvBnzKrjH2uq1O5-3" vertex="1">
          <mxGeometry x="100" width="100" height="40" as="geometry" />
        </mxCell>
        <mxCell id="sDAoQvDrm24iOx8Zkhv_-151" style="rounded=0;orthogonalLoop=1;jettySize=auto;html=1;exitX=0.5;exitY=1;exitDx=0;exitDy=0;entryX=0.25;entryY=0;entryDx=0;entryDy=0;endArrow=none;startFill=0;fillColor=#d5e8d4;strokeColor=#82b366;" parent="yYfkGbvBnzKrjH2uq1O5-3" source="sDAoQvDrm24iOx8Zkhv_-147" target="sDAoQvDrm24iOx8Zkhv_-145" edge="1">
          <mxGeometry relative="1" as="geometry" />
        </mxCell>
        <mxCell id="sDAoQvDrm24iOx8Zkhv_-147" value="Amount" style="ellipse;whiteSpace=wrap;html=1;align=center;fillColor=#d5e8d4;strokeColor=#82b366;" parent="yYfkGbvBnzKrjH2uq1O5-3" vertex="1">
          <mxGeometry width="100" height="40" as="geometry" />
        </mxCell>
        <mxCell id="sDAoQvDrm24iOx8Zkhv_-148" value="Date" style="ellipse;whiteSpace=wrap;html=1;align=center;fillColor=#d5e8d4;strokeColor=#82b366;" parent="yYfkGbvBnzKrjH2uq1O5-3" vertex="1">
          <mxGeometry x="200" width="100" height="40" as="geometry" />
        </mxCell>
        <mxCell id="sDAoQvDrm24iOx8Zkhv_-150" style="rounded=0;orthogonalLoop=1;jettySize=auto;html=1;exitX=0.5;exitY=1;exitDx=0;exitDy=0;entryX=0.673;entryY=-0.05;entryDx=0;entryDy=0;entryPerimeter=0;endArrow=none;startFill=0;fillColor=#d5e8d4;strokeColor=#82b366;" parent="yYfkGbvBnzKrjH2uq1O5-3" source="sDAoQvDrm24iOx8Zkhv_-148" target="sDAoQvDrm24iOx8Zkhv_-145" edge="1">
          <mxGeometry relative="1" as="geometry" />
        </mxCell>
        <mxCell id="yYfkGbvBnzKrjH2uq1O5-23" value="" style="group" parent="1" connectable="0" vertex="1">
          <mxGeometry x="1180" y="630" width="340" height="145" as="geometry" />
        </mxCell>
        <mxCell id="sDAoQvDrm24iOx8Zkhv_-196" value="Reviews" style="whiteSpace=wrap;html=1;align=center;fillColor=#e1d5e7;strokeColor=#9673a6;" parent="yYfkGbvBnzKrjH2uq1O5-23" vertex="1">
          <mxGeometry x="100" y="5" width="100" height="40" as="geometry" />
        </mxCell>
        <mxCell id="sDAoQvDrm24iOx8Zkhv_-198" value="Rating" style="ellipse;whiteSpace=wrap;html=1;align=center;fillColor=#e1d5e7;strokeColor=#9673a6;" parent="yYfkGbvBnzKrjH2uq1O5-23" vertex="1">
          <mxGeometry x="240" y="5" width="100" height="40" as="geometry" />
        </mxCell>
        <mxCell id="sDAoQvDrm24iOx8Zkhv_-202" style="rounded=0;orthogonalLoop=1;jettySize=auto;html=1;entryX=1;entryY=1;entryDx=0;entryDy=0;endArrow=none;startFill=0;fillColor=#e1d5e7;strokeColor=#9673a6;" parent="yYfkGbvBnzKrjH2uq1O5-23" source="sDAoQvDrm24iOx8Zkhv_-199" target="sDAoQvDrm24iOx8Zkhv_-196" edge="1">
          <mxGeometry relative="1" as="geometry" />
        </mxCell>
        <mxCell id="sDAoQvDrm24iOx8Zkhv_-199" value="ReviewDate" style="ellipse;whiteSpace=wrap;html=1;align=center;fillColor=#e1d5e7;strokeColor=#9673a6;" parent="yYfkGbvBnzKrjH2uq1O5-23" vertex="1">
          <mxGeometry x="240" y="52.5" width="100" height="40" as="geometry" />
        </mxCell>
        <mxCell id="sDAoQvDrm24iOx8Zkhv_-201" style="rounded=0;orthogonalLoop=1;jettySize=auto;html=1;entryX=0.884;entryY=0.963;entryDx=0;entryDy=0;endArrow=none;startFill=0;entryPerimeter=0;fillColor=#e1d5e7;strokeColor=#9673a6;" parent="yYfkGbvBnzKrjH2uq1O5-23" source="sDAoQvDrm24iOx8Zkhv_-200" target="sDAoQvDrm24iOx8Zkhv_-196" edge="1">
          <mxGeometry relative="1" as="geometry" />
        </mxCell>
        <mxCell id="sDAoQvDrm24iOx8Zkhv_-200" value="Comment" style="ellipse;whiteSpace=wrap;html=1;align=center;fillColor=#e1d5e7;strokeColor=#9673a6;" parent="yYfkGbvBnzKrjH2uq1O5-23" vertex="1">
          <mxGeometry x="140" y="65" width="100" height="40" as="geometry" />
        </mxCell>
        <mxCell id="sDAoQvDrm24iOx8Zkhv_-203" style="rounded=0;orthogonalLoop=1;jettySize=auto;html=1;exitX=0;exitY=0.5;exitDx=0;exitDy=0;entryX=1;entryY=0.5;entryDx=0;entryDy=0;endArrow=none;startFill=0;fillColor=#e1d5e7;strokeColor=#9673a6;" parent="yYfkGbvBnzKrjH2uq1O5-23" source="sDAoQvDrm24iOx8Zkhv_-198" target="sDAoQvDrm24iOx8Zkhv_-196" edge="1">
          <mxGeometry relative="1" as="geometry" />
        </mxCell>
        <mxCell id="sDAoQvDrm24iOx8Zkhv_-197" value="ReviewID" style="ellipse;whiteSpace=wrap;html=1;align=center;fontStyle=4;fillColor=#e1d5e7;strokeColor=#9673a6;" parent="1" vertex="1">
          <mxGeometry x="1400" y="565" width="110" height="50" as="geometry" />
        </mxCell>
        <mxCell id="sDAoQvDrm24iOx8Zkhv_-204" style="rounded=0;orthogonalLoop=1;jettySize=auto;html=1;exitX=0;exitY=0.5;exitDx=0;exitDy=0;entryX=1;entryY=0;entryDx=0;entryDy=0;endArrow=none;startFill=0;fillColor=#e1d5e7;strokeColor=#9673a6;" parent="1" source="sDAoQvDrm24iOx8Zkhv_-197" target="sDAoQvDrm24iOx8Zkhv_-196" edge="1">
          <mxGeometry relative="1" as="geometry" />
        </mxCell>
        <mxCell id="yYfkGbvBnzKrjH2uq1O5-27" value="" style="group" parent="1" connectable="0" vertex="1">
          <mxGeometry x="690" y="485" width="651" height="180" as="geometry" />
        </mxCell>
        <mxCell id="sDAoQvDrm24iOx8Zkhv_-22" value="Hotel" style="whiteSpace=wrap;html=1;align=center;strokeColor=#666666;fillColor=#f5f5f5;fontColor=#333333;" parent="yYfkGbvBnzKrjH2uq1O5-27" vertex="1">
          <mxGeometry x="180" y="62" width="100" height="40" as="geometry" />
        </mxCell>
        <mxCell id="sDAoQvDrm24iOx8Zkhv_-100" style="rounded=0;orthogonalLoop=1;jettySize=auto;html=1;exitX=1;exitY=0;exitDx=0;exitDy=0;entryX=0.25;entryY=1;entryDx=0;entryDy=0;endArrow=none;startFill=0;strokeColor=#666666;strokeWidth=1;shadow=0;fillColor=#f5f5f5;" parent="yYfkGbvBnzKrjH2uq1O5-27" source="sDAoQvDrm24iOx8Zkhv_-91" target="sDAoQvDrm24iOx8Zkhv_-22" edge="1">
          <mxGeometry relative="1" as="geometry" />
        </mxCell>
        <mxCell id="sDAoQvDrm24iOx8Zkhv_-91" value="HotelID" style="ellipse;whiteSpace=wrap;html=1;align=center;fontStyle=4;strokeColor=#666666;strokeWidth=1;shadow=0;fillColor=#f5f5f5;fontColor=#333333;" parent="yYfkGbvBnzKrjH2uq1O5-27" vertex="1">
          <mxGeometry x="46" y="152" width="100" height="40" as="geometry" />
        </mxCell>
        <mxCell id="sDAoQvDrm24iOx8Zkhv_-99" style="rounded=0;orthogonalLoop=1;jettySize=auto;html=1;exitX=1;exitY=0.5;exitDx=0;exitDy=0;entryX=0;entryY=1;entryDx=0;entryDy=0;endArrow=none;startFill=0;strokeColor=#666666;strokeWidth=1;shadow=0;fillColor=#f5f5f5;" parent="yYfkGbvBnzKrjH2uq1O5-27" source="sDAoQvDrm24iOx8Zkhv_-92" target="sDAoQvDrm24iOx8Zkhv_-22" edge="1">
          <mxGeometry relative="1" as="geometry" />
        </mxCell>
        <mxCell id="sDAoQvDrm24iOx8Zkhv_-92" value="HotelName" style="ellipse;whiteSpace=wrap;html=1;align=center;strokeColor=#666666;strokeWidth=1;shadow=0;fillColor=#f5f5f5;fontColor=#333333;" parent="yYfkGbvBnzKrjH2uq1O5-27" vertex="1">
          <mxGeometry x="30" y="102" width="100" height="40" as="geometry" />
        </mxCell>
        <mxCell id="sDAoQvDrm24iOx8Zkhv_-98" style="rounded=0;orthogonalLoop=1;jettySize=auto;html=1;exitX=0;exitY=0.5;exitDx=0;exitDy=0;endArrow=none;startFill=0;strokeColor=#666666;strokeWidth=1;shadow=0;fillColor=#f5f5f5;" parent="yYfkGbvBnzKrjH2uq1O5-27" source="sDAoQvDrm24iOx8Zkhv_-93" edge="1">
          <mxGeometry relative="1" as="geometry">
            <mxPoint x="280" y="82" as="targetPoint" />
          </mxGeometry>
        </mxCell>
        <mxCell id="sDAoQvDrm24iOx8Zkhv_-93" value="Location" style="ellipse;whiteSpace=wrap;html=1;align=center;strokeColor=#666666;fillColor=#f5f5f5;fontColor=#333333;" parent="yYfkGbvBnzKrjH2uq1O5-27" vertex="1">
          <mxGeometry x="330" y="62" width="100" height="40" as="geometry" />
        </mxCell>
        <mxCell id="sDAoQvDrm24iOx8Zkhv_-101" style="rounded=0;orthogonalLoop=1;jettySize=auto;html=1;exitX=0.5;exitY=0;exitDx=0;exitDy=0;entryX=0.5;entryY=1;entryDx=0;entryDy=0;endArrow=none;startFill=0;strokeColor=#666666;strokeWidth=1;shadow=0;fillColor=#f5f5f5;" parent="yYfkGbvBnzKrjH2uq1O5-27" source="sDAoQvDrm24iOx8Zkhv_-94" target="sDAoQvDrm24iOx8Zkhv_-22" edge="1">
          <mxGeometry relative="1" as="geometry" />
        </mxCell>
        <mxCell id="sDAoQvDrm24iOx8Zkhv_-94" value="Rooms" style="ellipse;whiteSpace=wrap;html=1;align=center;strokeColor=#666666;strokeWidth=1;shadow=0;fillColor=#f5f5f5;fontColor=#333333;" parent="yYfkGbvBnzKrjH2uq1O5-27" vertex="1">
          <mxGeometry x="153" y="152" width="100" height="40" as="geometry" />
        </mxCell>
        <mxCell id="sDAoQvDrm24iOx8Zkhv_-102" style="rounded=0;orthogonalLoop=1;jettySize=auto;html=1;exitX=0.5;exitY=0;exitDx=0;exitDy=0;entryX=0.903;entryY=0.972;entryDx=0;entryDy=0;endArrow=none;startFill=0;entryPerimeter=0;strokeColor=#666666;strokeWidth=1;shadow=0;fillColor=#f5f5f5;" parent="yYfkGbvBnzKrjH2uq1O5-27" source="sDAoQvDrm24iOx8Zkhv_-95" target="sDAoQvDrm24iOx8Zkhv_-22" edge="1">
          <mxGeometry relative="1" as="geometry" />
        </mxCell>
        <mxCell id="sDAoQvDrm24iOx8Zkhv_-95" value="HotelName" style="ellipse;whiteSpace=wrap;html=1;align=center;strokeColor=#666666;strokeWidth=1;shadow=0;fillColor=#f5f5f5;fontColor=#333333;" parent="yYfkGbvBnzKrjH2uq1O5-27" vertex="1">
          <mxGeometry x="260" y="152" width="100" height="40" as="geometry" />
        </mxCell>
        <mxCell id="sDAoQvDrm24iOx8Zkhv_-104" style="rounded=0;orthogonalLoop=1;jettySize=auto;html=1;entryX=1;entryY=0;entryDx=0;entryDy=0;endArrow=none;startFill=0;" parent="yYfkGbvBnzKrjH2uq1O5-27" source="sDAoQvDrm24iOx8Zkhv_-96" target="sDAoQvDrm24iOx8Zkhv_-22" edge="1">
          <mxGeometry relative="1" as="geometry" />
        </mxCell>
        <mxCell id="sDAoQvDrm24iOx8Zkhv_-96" value="Stars" style="ellipse;whiteSpace=wrap;html=1;align=center;fillColor=#f5f5f5;fontColor=#333333;strokeColor=#666666;" parent="yYfkGbvBnzKrjH2uq1O5-27" vertex="1">
          <mxGeometry x="320" y="12" width="100" height="40" as="geometry" />
        </mxCell>
        <mxCell id="sDAoQvDrm24iOx8Zkhv_-103" style="rounded=0;orthogonalLoop=1;jettySize=auto;html=1;exitX=0;exitY=0;exitDx=0;exitDy=0;entryX=1;entryY=1;entryDx=0;entryDy=0;endArrow=none;startFill=0;strokeColor=#666666;strokeWidth=1;shadow=0;fillColor=#f5f5f5;" parent="yYfkGbvBnzKrjH2uq1O5-27" source="sDAoQvDrm24iOx8Zkhv_-97" target="sDAoQvDrm24iOx8Zkhv_-22" edge="1">
          <mxGeometry relative="1" as="geometry" />
        </mxCell>
        <mxCell id="sDAoQvDrm24iOx8Zkhv_-97" value="AvailabilityStatus" style="ellipse;whiteSpace=wrap;html=1;align=center;strokeColor=#666666;strokeWidth=1;shadow=0;fillColor=#f5f5f5;fontColor=#333333;" parent="yYfkGbvBnzKrjH2uq1O5-27" vertex="1">
          <mxGeometry x="330" y="112" width="100" height="40" as="geometry" />
        </mxCell>
        <mxCell id="yYfkGbvBnzKrjH2uq1O5-42" value="" style="group" parent="1" connectable="0" vertex="1">
          <mxGeometry x="700" y="-238" width="324" height="157" as="geometry" />
        </mxCell>
        <mxCell id="sDAoQvDrm24iOx8Zkhv_-164" style="rounded=0;orthogonalLoop=1;jettySize=auto;html=1;exitX=0.5;exitY=1;exitDx=0;exitDy=0;entryX=0.5;entryY=0;entryDx=0;entryDy=0;endArrow=none;startFill=0;fillColor=#ffe6cc;strokeColor=#d79b00;" parent="yYfkGbvBnzKrjH2uq1O5-42" source="sDAoQvDrm24iOx8Zkhv_-157" target="sDAoQvDrm24iOx8Zkhv_-160" edge="1">
          <mxGeometry relative="1" as="geometry" />
        </mxCell>
        <mxCell id="sDAoQvDrm24iOx8Zkhv_-157" value="Status" style="ellipse;whiteSpace=wrap;html=1;align=center;fillColor=#ffe6cc;strokeColor=#d79b00;" parent="yYfkGbvBnzKrjH2uq1O5-42" vertex="1">
          <mxGeometry x="104" width="100" height="40" as="geometry" />
        </mxCell>
        <mxCell id="sDAoQvDrm24iOx8Zkhv_-165" style="rounded=0;orthogonalLoop=1;jettySize=auto;html=1;exitX=0;exitY=1;exitDx=0;exitDy=0;entryX=1;entryY=0;entryDx=0;entryDy=0;endArrow=none;startFill=0;fillColor=#ffe6cc;strokeColor=#d79b00;" parent="yYfkGbvBnzKrjH2uq1O5-42" source="sDAoQvDrm24iOx8Zkhv_-158" target="sDAoQvDrm24iOx8Zkhv_-160" edge="1">
          <mxGeometry relative="1" as="geometry" />
        </mxCell>
        <mxCell id="sDAoQvDrm24iOx8Zkhv_-158" value="Date" style="ellipse;whiteSpace=wrap;html=1;align=center;fillColor=#ffe6cc;strokeColor=#d79b00;" parent="yYfkGbvBnzKrjH2uq1O5-42" vertex="1">
          <mxGeometry x="210" width="100" height="40" as="geometry" />
        </mxCell>
        <mxCell id="sDAoQvDrm24iOx8Zkhv_-163" style="rounded=0;orthogonalLoop=1;jettySize=auto;html=1;exitX=0.5;exitY=1;exitDx=0;exitDy=0;endArrow=none;startFill=0;entryX=0.25;entryY=0;entryDx=0;entryDy=0;fillColor=#ffe6cc;strokeColor=#d79b00;" parent="yYfkGbvBnzKrjH2uq1O5-42" source="sDAoQvDrm24iOx8Zkhv_-159" target="sDAoQvDrm24iOx8Zkhv_-160" edge="1">
          <mxGeometry relative="1" as="geometry">
            <mxPoint x="120" y="70" as="targetPoint" />
          </mxGeometry>
        </mxCell>
        <mxCell id="sDAoQvDrm24iOx8Zkhv_-159" value="Date" style="ellipse;whiteSpace=wrap;html=1;align=center;fillColor=#ffe6cc;strokeColor=#d79b00;" parent="yYfkGbvBnzKrjH2uq1O5-42" vertex="1">
          <mxGeometry width="100" height="40" as="geometry" />
        </mxCell>
        <mxCell id="sDAoQvDrm24iOx8Zkhv_-160" value="Booking" style="whiteSpace=wrap;html=1;align=center;fillColor=#ffe6cc;strokeColor=#d79b00;" parent="yYfkGbvBnzKrjH2uq1O5-42" vertex="1">
          <mxGeometry x="104" y="77" width="100" height="40" as="geometry" />
        </mxCell>
        <mxCell id="sDAoQvDrm24iOx8Zkhv_-167" style="rounded=0;orthogonalLoop=1;jettySize=auto;html=1;exitX=0.5;exitY=0;exitDx=0;exitDy=0;entryX=1;entryY=0.5;entryDx=0;entryDy=0;endArrow=none;startFill=0;fillColor=#ffe6cc;strokeColor=#d79b00;" parent="yYfkGbvBnzKrjH2uq1O5-42" source="sDAoQvDrm24iOx8Zkhv_-161" target="sDAoQvDrm24iOx8Zkhv_-160" edge="1">
          <mxGeometry relative="1" as="geometry" />
        </mxCell>
        <mxCell id="sDAoQvDrm24iOx8Zkhv_-161" value="NoOfPeople" style="ellipse;whiteSpace=wrap;html=1;align=center;fillColor=#ffe6cc;strokeColor=#d79b00;" parent="yYfkGbvBnzKrjH2uq1O5-42" vertex="1">
          <mxGeometry x="224" y="60" width="100" height="40" as="geometry" />
        </mxCell>
        <mxCell id="sDAoQvDrm24iOx8Zkhv_-168" style="rounded=0;orthogonalLoop=1;jettySize=auto;html=1;entryX=1;entryY=1;entryDx=0;entryDy=0;endArrow=none;startFill=0;exitX=0;exitY=0.5;exitDx=0;exitDy=0;fillColor=#ffe6cc;strokeColor=#d79b00;" parent="yYfkGbvBnzKrjH2uq1O5-42" source="sDAoQvDrm24iOx8Zkhv_-162" target="sDAoQvDrm24iOx8Zkhv_-160" edge="1">
          <mxGeometry relative="1" as="geometry" />
        </mxCell>
        <mxCell id="sDAoQvDrm24iOx8Zkhv_-162" value="TotalAnount" style="ellipse;whiteSpace=wrap;html=1;align=center;fillColor=#ffe6cc;strokeColor=#d79b00;" parent="yYfkGbvBnzKrjH2uq1O5-42" vertex="1">
          <mxGeometry x="220" y="117" width="100" height="40" as="geometry" />
        </mxCell>
        <mxCell id="yYfkGbvBnzKrjH2uq1O5-43" value="" style="group" parent="1" connectable="0" vertex="1">
          <mxGeometry x="1050" y="-254" width="475" height="210" as="geometry" />
        </mxCell>
        <mxCell id="sDAoQvDrm24iOx8Zkhv_-182" value="" style="shape=link;html=1;rounded=0;exitX=0.5;exitY=0;exitDx=0;exitDy=0;entryX=0.5;entryY=1;entryDx=0;entryDy=0;" parent="yYfkGbvBnzKrjH2uq1O5-43" source="sDAoQvDrm24iOx8Zkhv_-181" target="sDAoQvDrm24iOx8Zkhv_-20" edge="1">
          <mxGeometry relative="1" as="geometry">
            <mxPoint x="255" y="671" as="sourcePoint" />
            <mxPoint x="235" y="191" as="targetPoint" />
          </mxGeometry>
        </mxCell>
        <mxCell id="sDAoQvDrm24iOx8Zkhv_-183" value="N" style="resizable=0;html=1;whiteSpace=wrap;align=right;verticalAlign=bottom;container=0;" parent="sDAoQvDrm24iOx8Zkhv_-182" connectable="0" vertex="1">
          <mxGeometry x="1" relative="1" as="geometry" />
        </mxCell>
        <mxCell id="yYfkGbvBnzKrjH2uq1O5-39" value="N" style="edgeLabel;html=1;align=center;verticalAlign=middle;resizable=0;points=[];" parent="sDAoQvDrm24iOx8Zkhv_-182" connectable="0" vertex="1">
          <mxGeometry x="0.5963" y="-1" relative="1" as="geometry">
            <mxPoint y="-1" as="offset" />
          </mxGeometry>
        </mxCell>
        <mxCell id="sDAoQvDrm24iOx8Zkhv_-80" value="DepartureDate" style="ellipse;whiteSpace=wrap;html=1;align=center;fillColor=#fff2cc;strokeColor=#d6b656;container=0;" parent="yYfkGbvBnzKrjH2uq1O5-43" vertex="1">
          <mxGeometry x="375" y="170" width="100" height="40" as="geometry" />
        </mxCell>
        <mxCell id="sDAoQvDrm24iOx8Zkhv_-84" style="rounded=0;orthogonalLoop=1;jettySize=auto;html=1;exitX=0;exitY=0.5;exitDx=0;exitDy=0;entryX=1;entryY=1;entryDx=0;entryDy=0;endArrow=none;startFill=0;fillColor=#fff2cc;strokeColor=#d6b656;" parent="yYfkGbvBnzKrjH2uq1O5-43" source="sDAoQvDrm24iOx8Zkhv_-80" target="sDAoQvDrm24iOx8Zkhv_-20" edge="1">
          <mxGeometry relative="1" as="geometry" />
        </mxCell>
        <mxCell id="sDAoQvDrm24iOx8Zkhv_-67" value="Destination" style="ellipse;whiteSpace=wrap;html=1;align=center;fillColor=#fff2cc;strokeColor=#d6b656;container=0;" parent="yYfkGbvBnzKrjH2uq1O5-43" vertex="1">
          <mxGeometry x="175" width="100" height="40" as="geometry" />
        </mxCell>
        <mxCell id="sDAoQvDrm24iOx8Zkhv_-72" style="rounded=0;orthogonalLoop=1;jettySize=auto;html=1;exitX=0.5;exitY=1;exitDx=0;exitDy=0;endArrow=none;startFill=0;entryX=0.392;entryY=-0.011;entryDx=0;entryDy=0;entryPerimeter=0;fillColor=#fff2cc;strokeColor=#d6b656;" parent="yYfkGbvBnzKrjH2uq1O5-43" source="sDAoQvDrm24iOx8Zkhv_-67" target="sDAoQvDrm24iOx8Zkhv_-20" edge="1">
          <mxGeometry relative="1" as="geometry">
            <mxPoint x="233" y="140" as="targetPoint" />
          </mxGeometry>
        </mxCell>
        <mxCell id="sDAoQvDrm24iOx8Zkhv_-68" value="TripID" style="ellipse;whiteSpace=wrap;html=1;align=center;fontStyle=4;fillColor=#fff2cc;strokeColor=#d6b656;container=0;" parent="yYfkGbvBnzKrjH2uq1O5-43" vertex="1">
          <mxGeometry x="275" y="10" width="100" height="40" as="geometry" />
        </mxCell>
        <mxCell id="sDAoQvDrm24iOx8Zkhv_-73" style="rounded=0;orthogonalLoop=1;jettySize=auto;html=1;exitX=0;exitY=1;exitDx=0;exitDy=0;entryX=0.5;entryY=0;entryDx=0;entryDy=0;endArrow=none;startFill=0;fillColor=#fff2cc;strokeColor=#d6b656;" parent="yYfkGbvBnzKrjH2uq1O5-43" source="sDAoQvDrm24iOx8Zkhv_-68" target="sDAoQvDrm24iOx8Zkhv_-20" edge="1">
          <mxGeometry relative="1" as="geometry" />
        </mxCell>
        <mxCell id="sDAoQvDrm24iOx8Zkhv_-85" value="price" style="ellipse;whiteSpace=wrap;html=1;align=center;fillColor=#fff2cc;strokeColor=#d6b656;container=0;" parent="yYfkGbvBnzKrjH2uq1O5-43" vertex="1">
          <mxGeometry x="345" y="55" width="100" height="40" as="geometry" />
        </mxCell>
        <mxCell id="sDAoQvDrm24iOx8Zkhv_-88" style="rounded=0;orthogonalLoop=1;jettySize=auto;html=1;entryX=1;entryY=0;entryDx=0;entryDy=0;endArrow=none;startFill=0;exitX=0;exitY=1;exitDx=0;exitDy=0;fillColor=#fff2cc;strokeColor=#d6b656;" parent="yYfkGbvBnzKrjH2uq1O5-43" source="sDAoQvDrm24iOx8Zkhv_-85" target="sDAoQvDrm24iOx8Zkhv_-20" edge="1">
          <mxGeometry relative="1" as="geometry">
            <mxPoint x="365" y="90" as="sourcePoint" />
          </mxGeometry>
        </mxCell>
        <mxCell id="sDAoQvDrm24iOx8Zkhv_-82" value="Duration" style="ellipse;whiteSpace=wrap;html=1;align=center;dashed=1;fillColor=#fff2cc;strokeColor=#d6b656;container=0;" parent="yYfkGbvBnzKrjH2uq1O5-43" vertex="1">
          <mxGeometry x="375" y="110" width="100" height="40" as="geometry" />
        </mxCell>
        <mxCell id="sDAoQvDrm24iOx8Zkhv_-87" style="rounded=0;orthogonalLoop=1;jettySize=auto;html=1;exitX=0;exitY=0.5;exitDx=0;exitDy=0;endArrow=none;startFill=0;fillColor=#fff2cc;strokeColor=#d6b656;" parent="yYfkGbvBnzKrjH2uq1O5-43" source="sDAoQvDrm24iOx8Zkhv_-82" edge="1">
          <mxGeometry relative="1" as="geometry">
            <mxPoint x="285" y="160" as="targetPoint" />
          </mxGeometry>
        </mxCell>
        <mxCell id="sDAoQvDrm24iOx8Zkhv_-20" value="Trip" style="whiteSpace=wrap;html=1;align=center;fillColor=#fff2cc;strokeColor=#d6b656;container=0;" parent="yYfkGbvBnzKrjH2uq1O5-43" vertex="1">
          <mxGeometry x="185" y="140" width="100" height="40" as="geometry" />
        </mxCell>
        <mxCell id="sDAoQvDrm24iOx8Zkhv_-86" style="rounded=0;orthogonalLoop=1;jettySize=auto;html=1;exitX=0.5;exitY=0;exitDx=0;exitDy=0;entryX=0;entryY=0;entryDx=0;entryDy=0;endArrow=none;startFill=0;fillColor=#fff2cc;strokeColor=#d6b656;" parent="yYfkGbvBnzKrjH2uq1O5-43" source="sDAoQvDrm24iOx8Zkhv_-81" target="sDAoQvDrm24iOx8Zkhv_-20" edge="1">
          <mxGeometry relative="1" as="geometry" />
        </mxCell>
        <mxCell id="sDAoQvDrm24iOx8Zkhv_-81" value="TotalTravelers" style="ellipse;whiteSpace=wrap;html=1;align=center;fillColor=#fff2cc;strokeColor=#d6b656;container=0;" parent="yYfkGbvBnzKrjH2uq1O5-43" vertex="1">
          <mxGeometry y="50" width="100" height="40" as="geometry" />
        </mxCell>
        <mxCell id="sDAoQvDrm24iOx8Zkhv_-79" value="ReturnDate" style="ellipse;whiteSpace=wrap;html=1;align=center;fillColor=#fff2cc;strokeColor=#d6b656;container=0;" parent="yYfkGbvBnzKrjH2uq1O5-43" vertex="1">
          <mxGeometry x="65" y="10" width="110" height="40" as="geometry" />
        </mxCell>
        <mxCell id="sDAoQvDrm24iOx8Zkhv_-83" style="rounded=0;orthogonalLoop=1;jettySize=auto;html=1;exitX=1;exitY=1;exitDx=0;exitDy=0;entryX=0.25;entryY=0;entryDx=0;entryDy=0;endArrow=none;startFill=0;fillColor=#fff2cc;strokeColor=#d6b656;" parent="yYfkGbvBnzKrjH2uq1O5-43" source="sDAoQvDrm24iOx8Zkhv_-79" target="sDAoQvDrm24iOx8Zkhv_-20" edge="1">
          <mxGeometry relative="1" as="geometry" />
        </mxCell>
        <mxCell id="2Jg2Xkx_9DSmus3aWcFU-4" style="edgeStyle=orthogonalEdgeStyle;rounded=0;orthogonalLoop=1;jettySize=auto;html=1;exitX=1;exitY=0.5;exitDx=0;exitDy=0;entryX=0;entryY=0.25;entryDx=0;entryDy=0;endArrow=none;startFill=0;" edge="1" parent="1" source="2Jg2Xkx_9DSmus3aWcFU-2" target="sDAoQvDrm24iOx8Zkhv_-2">
          <mxGeometry relative="1" as="geometry" />
        </mxCell>
        <mxCell id="2Jg2Xkx_9DSmus3aWcFU-2" value="Username" style="ellipse;whiteSpace=wrap;html=1;align=center;fillColor=#e1d5e7;strokeColor=#9673a6;" vertex="1" parent="1">
          <mxGeometry x="-540" y="163" width="100" height="40" as="geometry" />
        </mxCell>
        <mxCell id="2Jg2Xkx_9DSmus3aWcFU-5" style="edgeStyle=orthogonalEdgeStyle;rounded=0;orthogonalLoop=1;jettySize=auto;html=1;exitX=1;exitY=0.5;exitDx=0;exitDy=0;entryX=0;entryY=0.5;entryDx=0;entryDy=0;endArrow=none;startFill=0;" edge="1" parent="1" source="2Jg2Xkx_9DSmus3aWcFU-3" target="sDAoQvDrm24iOx8Zkhv_-2">
          <mxGeometry relative="1" as="geometry" />
        </mxCell>
        <mxCell id="2Jg2Xkx_9DSmus3aWcFU-3" value="Password" style="ellipse;whiteSpace=wrap;html=1;align=center;fillColor=#e1d5e7;strokeColor=#9673a6;" vertex="1" parent="1">
          <mxGeometry x="-540" y="230" width="100" height="40" as="geometry" />
        </mxCell>
        <mxCell id="2Jg2Xkx_9DSmus3aWcFU-16" style="edgeStyle=orthogonalEdgeStyle;rounded=0;orthogonalLoop=1;jettySize=auto;html=1;exitX=0.5;exitY=1;exitDx=0;exitDy=0;entryX=1;entryY=0.5;entryDx=0;entryDy=0;" edge="1" parent="1" source="2Jg2Xkx_9DSmus3aWcFU-7" target="2Jg2Xkx_9DSmus3aWcFU-13">
          <mxGeometry relative="1" as="geometry" />
        </mxCell>
        <mxCell id="2Jg2Xkx_9DSmus3aWcFU-17" style="edgeStyle=orthogonalEdgeStyle;rounded=0;orthogonalLoop=1;jettySize=auto;html=1;exitX=0.5;exitY=1;exitDx=0;exitDy=0;entryX=0.5;entryY=0;entryDx=0;entryDy=0;" edge="1" parent="1" source="2Jg2Xkx_9DSmus3aWcFU-7" target="2Jg2Xkx_9DSmus3aWcFU-14">
          <mxGeometry relative="1" as="geometry" />
        </mxCell>
        <mxCell id="2Jg2Xkx_9DSmus3aWcFU-18" style="edgeStyle=orthogonalEdgeStyle;rounded=0;orthogonalLoop=1;jettySize=auto;html=1;exitX=0.5;exitY=1;exitDx=0;exitDy=0;entryX=0.5;entryY=0;entryDx=0;entryDy=0;" edge="1" parent="1" source="2Jg2Xkx_9DSmus3aWcFU-7" target="2Jg2Xkx_9DSmus3aWcFU-15">
          <mxGeometry relative="1" as="geometry" />
        </mxCell>
        <mxCell id="2Jg2Xkx_9DSmus3aWcFU-7" value="Wishlist" style="rounded=1;arcSize=10;whiteSpace=wrap;html=1;align=center;" vertex="1" parent="1">
          <mxGeometry x="8" y="909" width="100" height="40" as="geometry" />
        </mxCell>
        <mxCell id="2Jg2Xkx_9DSmus3aWcFU-8" value="has" style="shape=rhombus;html=1;dashed=0;whiteSpace=wrap;perimeter=rhombusPerimeter;" vertex="1" parent="1">
          <mxGeometry x="-120" y="775" width="60" height="50" as="geometry" />
        </mxCell>
        <mxCell id="2Jg2Xkx_9DSmus3aWcFU-9" value="" style="endArrow=none;html=1;rounded=0;entryX=0.866;entryY=1.036;entryDx=0;entryDy=0;entryPerimeter=0;exitX=0.5;exitY=0;exitDx=0;exitDy=0;" edge="1" parent="1" source="2Jg2Xkx_9DSmus3aWcFU-8" target="sDAoQvDrm24iOx8Zkhv_-5">
          <mxGeometry relative="1" as="geometry">
            <mxPoint x="-90" y="730" as="sourcePoint" />
            <mxPoint x="70" y="730" as="targetPoint" />
          </mxGeometry>
        </mxCell>
        <mxCell id="2Jg2Xkx_9DSmus3aWcFU-10" value="1" style="resizable=0;html=1;whiteSpace=wrap;align=right;verticalAlign=bottom;" connectable="0" vertex="1" parent="2Jg2Xkx_9DSmus3aWcFU-9">
          <mxGeometry x="1" relative="1" as="geometry" />
        </mxCell>
        <mxCell id="2Jg2Xkx_9DSmus3aWcFU-11" value="" style="shape=link;html=1;rounded=0;entryX=0.413;entryY=0.012;entryDx=0;entryDy=0;entryPerimeter=0;exitX=1;exitY=0.5;exitDx=0;exitDy=0;" edge="1" parent="1" source="2Jg2Xkx_9DSmus3aWcFU-8" target="2Jg2Xkx_9DSmus3aWcFU-7">
          <mxGeometry relative="1" as="geometry">
            <mxPoint x="-90" y="730" as="sourcePoint" />
            <mxPoint x="70" y="730" as="targetPoint" />
          </mxGeometry>
        </mxCell>
        <mxCell id="2Jg2Xkx_9DSmus3aWcFU-12" value="1" style="resizable=0;html=1;whiteSpace=wrap;align=right;verticalAlign=bottom;" connectable="0" vertex="1" parent="2Jg2Xkx_9DSmus3aWcFU-11">
          <mxGeometry x="1" relative="1" as="geometry" />
        </mxCell>
        <mxCell id="2Jg2Xkx_9DSmus3aWcFU-13" value="WishlistID" style="ellipse;whiteSpace=wrap;html=1;align=center;fontStyle=4;" vertex="1" parent="1">
          <mxGeometry x="-132" y="949" width="100" height="40" as="geometry" />
        </mxCell>
        <mxCell id="2Jg2Xkx_9DSmus3aWcFU-14" value="DateAdded" style="ellipse;whiteSpace=wrap;html=1;align=center;" vertex="1" parent="1">
          <mxGeometry x="-12" y="989" width="100" height="40" as="geometry" />
        </mxCell>
        <mxCell id="2Jg2Xkx_9DSmus3aWcFU-15" value="isNotified" style="ellipse;whiteSpace=wrap;html=1;align=center;" vertex="1" parent="1">
          <mxGeometry x="93" y="989" width="100" height="40" as="geometry" />
        </mxCell>
        <mxCell id="2Jg2Xkx_9DSmus3aWcFU-32" value="" style="group" vertex="1" connectable="0" parent="1">
          <mxGeometry x="690" y="-570" width="470" height="185" as="geometry" />
        </mxCell>
        <mxCell id="2Jg2Xkx_9DSmus3aWcFU-19" value="Itinerary" style="rounded=1;arcSize=10;whiteSpace=wrap;html=1;align=center;fillColor=#b0e3e6;strokeColor=#0e8088;" vertex="1" parent="2Jg2Xkx_9DSmus3aWcFU-32">
          <mxGeometry x="160" y="120" width="100" height="40" as="geometry" />
        </mxCell>
        <mxCell id="2Jg2Xkx_9DSmus3aWcFU-27" style="rounded=0;orthogonalLoop=1;jettySize=auto;html=1;exitX=1;exitY=0.5;exitDx=0;exitDy=0;entryX=0;entryY=0.5;entryDx=0;entryDy=0;endArrow=none;startFill=0;fillColor=#b0e3e6;strokeColor=#0e8088;" edge="1" parent="2Jg2Xkx_9DSmus3aWcFU-32" source="2Jg2Xkx_9DSmus3aWcFU-20" target="2Jg2Xkx_9DSmus3aWcFU-19">
          <mxGeometry relative="1" as="geometry" />
        </mxCell>
        <mxCell id="2Jg2Xkx_9DSmus3aWcFU-20" value="ItineraryID" style="ellipse;whiteSpace=wrap;html=1;align=center;fontStyle=4;fillColor=#b0e3e6;strokeColor=#0e8088;" vertex="1" parent="2Jg2Xkx_9DSmus3aWcFU-32">
          <mxGeometry y="120" width="100" height="40" as="geometry" />
        </mxCell>
        <mxCell id="2Jg2Xkx_9DSmus3aWcFU-26" style="rounded=0;orthogonalLoop=1;jettySize=auto;html=1;exitX=1;exitY=0.5;exitDx=0;exitDy=0;endArrow=none;startFill=0;fillColor=#b0e3e6;strokeColor=#0e8088;" edge="1" parent="2Jg2Xkx_9DSmus3aWcFU-32" source="2Jg2Xkx_9DSmus3aWcFU-21" target="2Jg2Xkx_9DSmus3aWcFU-19">
          <mxGeometry relative="1" as="geometry" />
        </mxCell>
        <mxCell id="2Jg2Xkx_9DSmus3aWcFU-21" value="DayNumber" style="ellipse;whiteSpace=wrap;html=1;align=center;fillColor=#b0e3e6;strokeColor=#0e8088;" vertex="1" parent="2Jg2Xkx_9DSmus3aWcFU-32">
          <mxGeometry x="60" y="41" width="100" height="40" as="geometry" />
        </mxCell>
        <mxCell id="2Jg2Xkx_9DSmus3aWcFU-22" value="Title" style="ellipse;whiteSpace=wrap;html=1;align=center;fillColor=#b0e3e6;strokeColor=#0e8088;" vertex="1" parent="2Jg2Xkx_9DSmus3aWcFU-32">
          <mxGeometry x="170" width="100" height="40" as="geometry" />
        </mxCell>
        <mxCell id="2Jg2Xkx_9DSmus3aWcFU-23" value="Location" style="ellipse;whiteSpace=wrap;html=1;align=center;fillColor=#b0e3e6;strokeColor=#0e8088;" vertex="1" parent="2Jg2Xkx_9DSmus3aWcFU-32">
          <mxGeometry x="310" y="26" width="100" height="40" as="geometry" />
        </mxCell>
        <mxCell id="2Jg2Xkx_9DSmus3aWcFU-24" value="StartTime" style="ellipse;whiteSpace=wrap;html=1;align=center;fillColor=#b0e3e6;strokeColor=#0e8088;" vertex="1" parent="2Jg2Xkx_9DSmus3aWcFU-32">
          <mxGeometry x="340" y="90" width="100" height="40" as="geometry" />
        </mxCell>
        <mxCell id="2Jg2Xkx_9DSmus3aWcFU-31" style="rounded=0;orthogonalLoop=1;jettySize=auto;html=1;exitX=0;exitY=0.5;exitDx=0;exitDy=0;entryX=1;entryY=0.75;entryDx=0;entryDy=0;endArrow=none;startFill=0;fillColor=#b0e3e6;strokeColor=#0e8088;" edge="1" parent="2Jg2Xkx_9DSmus3aWcFU-32" source="2Jg2Xkx_9DSmus3aWcFU-25" target="2Jg2Xkx_9DSmus3aWcFU-19">
          <mxGeometry relative="1" as="geometry" />
        </mxCell>
        <mxCell id="2Jg2Xkx_9DSmus3aWcFU-25" value="EndTime" style="ellipse;whiteSpace=wrap;html=1;align=center;fillColor=#b0e3e6;strokeColor=#0e8088;" vertex="1" parent="2Jg2Xkx_9DSmus3aWcFU-32">
          <mxGeometry x="370" y="145" width="100" height="40" as="geometry" />
        </mxCell>
        <mxCell id="2Jg2Xkx_9DSmus3aWcFU-28" style="rounded=0;orthogonalLoop=1;jettySize=auto;html=1;exitX=0.5;exitY=1;exitDx=0;exitDy=0;entryX=0.69;entryY=-0.058;entryDx=0;entryDy=0;entryPerimeter=0;endArrow=none;startFill=0;fillColor=#b0e3e6;strokeColor=#0e8088;" edge="1" parent="2Jg2Xkx_9DSmus3aWcFU-32" source="2Jg2Xkx_9DSmus3aWcFU-22" target="2Jg2Xkx_9DSmus3aWcFU-19">
          <mxGeometry relative="1" as="geometry" />
        </mxCell>
        <mxCell id="2Jg2Xkx_9DSmus3aWcFU-29" style="rounded=0;orthogonalLoop=1;jettySize=auto;html=1;exitX=0;exitY=0.5;exitDx=0;exitDy=0;entryX=0.857;entryY=0.075;entryDx=0;entryDy=0;entryPerimeter=0;endArrow=none;startFill=0;fillColor=#b0e3e6;strokeColor=#0e8088;" edge="1" parent="2Jg2Xkx_9DSmus3aWcFU-32" source="2Jg2Xkx_9DSmus3aWcFU-23" target="2Jg2Xkx_9DSmus3aWcFU-19">
          <mxGeometry relative="1" as="geometry" />
        </mxCell>
        <mxCell id="2Jg2Xkx_9DSmus3aWcFU-30" style="rounded=0;orthogonalLoop=1;jettySize=auto;html=1;exitX=0;exitY=0.5;exitDx=0;exitDy=0;entryX=1.003;entryY=0.392;entryDx=0;entryDy=0;entryPerimeter=0;endArrow=none;startFill=0;fillColor=#b0e3e6;strokeColor=#0e8088;" edge="1" parent="2Jg2Xkx_9DSmus3aWcFU-32" source="2Jg2Xkx_9DSmus3aWcFU-24" target="2Jg2Xkx_9DSmus3aWcFU-19">
          <mxGeometry relative="1" as="geometry" />
        </mxCell>
        <mxCell id="2Jg2Xkx_9DSmus3aWcFU-34" value="organizedFor" style="shape=rhombus;perimeter=rhombusPerimeter;whiteSpace=wrap;html=1;align=center;" vertex="1" parent="1">
          <mxGeometry x="955.5" y="-370" width="120" height="70" as="geometry" />
        </mxCell>
        <mxCell id="2Jg2Xkx_9DSmus3aWcFU-35" value="" style="shape=link;html=1;rounded=0;entryX=0.5;entryY=1;entryDx=0;entryDy=0;exitX=0;exitY=0.5;exitDx=0;exitDy=0;" edge="1" parent="1" source="2Jg2Xkx_9DSmus3aWcFU-34" target="2Jg2Xkx_9DSmus3aWcFU-19">
          <mxGeometry relative="1" as="geometry">
            <mxPoint x="1010" y="-340" as="sourcePoint" />
            <mxPoint x="1370" y="-220" as="targetPoint" />
          </mxGeometry>
        </mxCell>
        <mxCell id="2Jg2Xkx_9DSmus3aWcFU-36" value="N" style="resizable=0;html=1;whiteSpace=wrap;align=right;verticalAlign=bottom;" connectable="0" vertex="1" parent="2Jg2Xkx_9DSmus3aWcFU-35">
          <mxGeometry x="1" relative="1" as="geometry" />
        </mxCell>
        <mxCell id="2Jg2Xkx_9DSmus3aWcFU-37" value="" style="html=1;rounded=0;exitX=1;exitY=0.5;exitDx=0;exitDy=0;endArrow=none;startFill=0;" edge="1" parent="1" source="2Jg2Xkx_9DSmus3aWcFU-34" target="sDAoQvDrm24iOx8Zkhv_-20">
          <mxGeometry relative="1" as="geometry">
            <mxPoint x="1210" y="-220" as="sourcePoint" />
            <mxPoint x="1370" y="-220" as="targetPoint" />
          </mxGeometry>
        </mxCell>
        <mxCell id="2Jg2Xkx_9DSmus3aWcFU-38" value="1" style="resizable=0;html=1;whiteSpace=wrap;align=right;verticalAlign=bottom;" connectable="0" vertex="1" parent="2Jg2Xkx_9DSmus3aWcFU-37">
          <mxGeometry x="1" relative="1" as="geometry" />
        </mxCell>
      </root>
    </mxGraphModel>
  </diagram>
</mxfile>
